<svg xmlns="http://www.w3.org/2000/svg" xmlns:xlink="http://www.w3.org/1999/xlink" preserveAspectRatio="xMidYMid meet" width="168" height="117" viewBox="0 0 168 117" style="width:100%;height:100%"><defs><clipPath id="_R_G_L_0_C_0"><path id="_R_G_L_0_C_0_P_0" fill-rule="nonzero" d="M1.44 1.35 C1.44,1.35 1.45,43.55 1.45,43.55 C1.45,43.55 61.65,43.54 61.65,43.54 C61.65,43.54 61.64,1.34 61.64,1.34 C61.64,1.34 1.44,1.35 1.44,1.35z "/></clipPath><animateMotion repeatCount="indefinite" dur="4s" begin="0s" xlink:href="#_R_G_L_0_G_G_0_D_0_P_0_G_0_T_0" fill="freeze" keyTimes="0;0.17;0.34;0.45;0.46;1" path="M46.27 33.37 C46.27,33.37 46.27,33.37 46.27,33.37 C46.27,37.54 46.27,54.2 46.27,58.37 C46.27,58.37 46.27,58.37 46.27,58.37 C46.27,54.2 46.27,37.54 46.27,33.37 C46.27,33.37 46.27,33.37 46.27,33.37 " keyPoints="0;0;0.5;0.5;1;1" keySplines="1 0 0.833 1;1 0 0.833 1;0.167 0.167 0.833 0.833;0.167 0.167 0.833 0.833;0 0 0 0" calcMode="spline"/><animateMotion repeatCount="indefinite" dur="4s" begin="0s" xlink:href="#_R_G_L_0_G_G_0_D_1_P_0_G_0_T_0" fill="freeze" keyTimes="0;0.17;0.34;0.45;0.46;1" path="M46.27 33.37 C46.27,33.37 46.27,33.37 46.27,33.37 C46.27,37.54 46.27,54.2 46.27,58.37 C46.27,58.37 46.27,58.37 46.27,58.37 C46.27,54.2 46.27,37.54 46.27,33.37 C46.27,33.37 46.27,33.37 46.27,33.37 " keyPoints="0;0;0.5;0.5;1;1" keySplines="1 0 0.833 1;1 0 0.833 1;0.167 0.167 0.833 0.833;0.167 0.167 0.833 0.833;0 0 0 0" calcMode="spline"/><animateMotion repeatCount="indefinite" dur="4s" begin="0s" xlink:href="#_R_G_L_0_G_G_0_D_2_P_0_G_0_T_0" fill="freeze" keyTimes="0;0.27;0.43;0.45;0.46;1" path="M26.91 27.03 C26.91,27.03 26.91,27.03 26.91,27.03 C26.91,35.03 26.91,67.03 26.91,75.03 C26.91,75.03 26.91,75.03 26.91,75.03 C26.91,67.03 26.91,35.03 26.91,27.03 C26.91,27.03 26.91,27.03 26.91,27.03 " keyPoints="0;0;0.5;0.5;1;1" keySplines="1 0.006 0.667 1;1 0.006 0.667 1;0.333 0.333 0.833 0.833;0.167 0.167 0.833 0.833;0 0 0 0" calcMode="spline"/><animateMotion repeatCount="indefinite" dur="4s" begin="0s" xlink:href="#_R_G_L_0_G_G_0_D_4_P_0_G_0_T_0" fill="freeze" keyTimes="0;0.27;0.43;0.45;0.46;1" path="M26.91 27.03 C26.91,27.03 26.91,27.03 26.91,27.03 C26.91,35.03 26.91,67.03 26.91,75.03 C26.91,75.03 26.91,75.03 26.91,75.03 C26.91,67.03 26.91,35.03 26.91,27.03 C26.91,27.03 26.91,27.03 26.91,27.03 " keyPoints="0;0;0.5;0.5;1;1" keySplines="1 0.006 0.667 1;1 0.006 0.667 1;0.333 0.333 0.833 0.833;0.167 0.167 0.833 0.833;0 0 0 0" calcMode="spline"/><animateTransform repeatCount="indefinite" dur="4s" begin="0s" xlink:href="#_R_G_L_0_G_G_0_D_5_P_0_G_0_T_0" fill="freeze" attributeName="transform" from="1 1" to="1 1" type="scale" additive="sum" keyTimes="0;0.18;0.29;0.45;0.46;1" values="1 1;1 1;0 0;0 0;1 1;1 1" keySplines="0.477 0.003 0.833 1;0.477 0.003 0.833 1;0.167 0 0.833 1;0.167 0.167 0.833 0.833;0 0 0 0" calcMode="spline"/><animateTransform repeatCount="indefinite" dur="4s" begin="0s" xlink:href="#_R_G_L_0_G_G_0_D_6_P_0_G_0_T_0" fill="freeze" attributeName="transform" from="1 1" to="1 1" type="scale" additive="sum" keyTimes="0;0.15;0.26;0.45;0.46;1" values="1 1;1 1;0 0;0 0;1 1;1 1" keySplines="0.477 0.003 0.833 1;0.477 0.003 0.833 1;0.167 0 0.833 1;0.167 0.167 0.833 0.833;0 0 0 0" calcMode="spline"/><animateTransform repeatCount="indefinite" dur="4s" begin="0s" xlink:href="#_R_G_L_0_G" fill="freeze" attributeName="transform" from="0" to="0" type="rotate" additive="sum" keyTimes="0;0.44;0.51;0.67;0.75;1" values="0;0;-6;5;0;0" keySplines="0.167 0 0.833 1;0.167 0 0.833 1;0.984 0 0.532 1;0.891 0 0.667 1;0 0 0 0" calcMode="spline"/><animateTransform repeatCount="indefinite" dur="4s" begin="0s" xlink:href="#_R_G_L_0_G" fill="freeze" attributeName="transform" from="2.8000000000000003 2.8000000000000003" to="2.8000000000000003 2.8000000000000003" type="scale" additive="sum" keyTimes="0;0.31;0.44;0.51;0.67;0.75;1" values="2.8000000000000003 2.8000000000000003;2.8000000000000003 2.8000000000000003;0 0;0 0;3.1376799999999996 3.1376799999999996;2.8000000000000003 2.8000000000000003;2.8000000000000003 2.8000000000000003" keySplines="1 0 0.876 1;1 0 0.876 1;0.167 0 0.833 1;0.984 0 0.357 1;1 0 0.791 1;0 0 0 0" calcMode="spline"/><animateTransform repeatCount="indefinite" dur="4s" begin="0s" xlink:href="#_R_G_L_0_G" fill="freeze" attributeName="transform" from="-31.5 -22.5" to="-31.5 -22.5" type="translate" additive="sum" keyTimes="0;1" values="-31.5 -22.5;-31.5 -22.5" keySplines="0 0 1 1" calcMode="spline"/><animate attributeType="XML" attributeName="opacity" dur="4s" from="0" to="1" xlink:href="#time_group"/></defs><g id="_R_G"><g id="_R_G_L_0_G" transform=" translate(84, 58.8)"><g clip-path="url(#_R_G_L_0_C_0)"><g id="_R_G_L_0_G_G_0_D_0_P_0_G_0_T_0"><path id="_R_G_L_0_G_G_0_D_0_P_0" fill="#bcebff" fill-opacity="1" fill-rule="nonzero" d=" M14.4 -1.65 C14.4,-1.65 6.58,-9.29 6.58,-9.29 C6.48,-9.38 6.33,-9.38 6.24,-9.29 C6.24,-9.29 -14.3,8.94 -14.3,8.94 C-14.48,9.1 -14.37,9.38 -14.14,9.38 C-14.14,9.38 14.23,9.38 14.23,9.38 C14.37,9.38 14.48,9.27 14.48,9.13 C14.48,9.13 14.48,-1.47 14.48,-1.47 C14.48,-1.53 14.45,-1.6 14.4,-1.65z "/></g><g id="_R_G_L_0_G_G_0_D_1_P_0_G_0_T_0"><path id="_R_G_L_0_G_G_0_D_1_P_0" stroke="#02b2fd" stroke-linecap="round" stroke-linejoin="round" fill="none" stroke-width="1.5" stroke-opacity="1" d=" M14.4 -1.65 C14.4,-1.65 6.58,-9.29 6.58,-9.29 C6.48,-9.38 6.33,-9.38 6.24,-9.29 C6.24,-9.29 -14.3,8.94 -14.3,8.94 C-14.48,9.1 -14.37,9.38 -14.14,9.38 C-14.14,9.38 14.23,9.38 14.23,9.38 C14.37,9.38 14.48,9.27 14.48,9.13 C14.48,9.13 14.48,-1.47 14.48,-1.47 C14.48,-1.53 14.45,-1.6 14.4,-1.65z "/></g><g id="_R_G_L_0_G_G_0_D_2_P_0_G_0_T_0"><path id="_R_G_L_0_G_G_0_D_2_P_0" fill="#bcebff" fill-opacity="1" fill-rule="nonzero" d=" M-24.59 -2.69 C-24.59,-2.69 -11.16,-15.63 -11.16,-15.63 C-11.06,-15.72 -10.91,-15.72 -10.82,-15.64 C-10.82,-15.64 24.49,15.29 24.49,15.29 C24.67,15.44 24.56,15.73 24.33,15.73 C24.33,15.73 -24.41,15.73 -24.41,15.73 C-24.55,15.73 -24.66,15.61 -24.66,15.48 C-24.66,15.48 -24.66,-2.52 -24.66,-2.52 C-24.66,-2.58 -24.64,-2.65 -24.59,-2.69z "/></g><path id="_R_G_L_0_G_G_0_D_3_P_0" stroke="#02b2fd" stroke-linecap="round" stroke-linejoin="round" fill="none" stroke-width="1.5" stroke-opacity="1" d=" M3.21 2.22 C3.21,2.22 59.79,2.22 59.79,2.22 C60.33,2.22 60.77,2.66 60.77,3.19 C60.77,3.19 60.77,41.81 60.77,41.81 C60.77,42.34 60.33,42.78 59.79,42.78 C59.79,42.78 3.21,42.78 3.21,42.78 C2.67,42.78 2.23,42.34 2.23,41.81 C2.23,41.81 2.23,3.19 2.23,3.19 C2.23,2.66 2.67,2.22 3.21,2.22z "/><g id="_R_G_L_0_G_G_0_D_4_P_0_G_0_T_0"><path id="_R_G_L_0_G_G_0_D_4_P_0" stroke="#02b2fd" stroke-linecap="round" stroke-linejoin="round" fill="none" stroke-width="1.5" stroke-opacity="1" d=" M-24.59 -2.69 C-24.59,-2.69 -11.16,-15.63 -11.16,-15.63 C-11.06,-15.72 -10.91,-15.72 -10.82,-15.64 C-10.82,-15.64 24.49,15.29 24.49,15.29 C24.67,15.44 24.56,15.73 24.33,15.73 C24.33,15.73 -24.41,15.73 -24.41,15.73 C-24.55,15.73 -24.66,15.61 -24.66,15.48 C-24.66,15.48 -24.66,-2.52 -24.66,-2.52 C-24.66,-2.58 -24.64,-2.65 -24.59,-2.69z "/></g><g id="_R_G_L_0_G_G_0_D_5_P_0_G_0_T_0" transform=" translate(38.7, 13.783)"><path id="_R_G_L_0_G_G_0_D_5_P_0" fill="#bcebff" fill-opacity="1" fill-rule="nonzero" d=" M0 2.73 C1.51,2.73 2.75,1.52 2.75,0 C2.75,-1.51 1.51,-2.73 0,-2.73 C-1.51,-2.73 -2.75,-1.51 -2.75,0 C-2.75,1.52 -1.51,2.73 0,2.73z "/></g><g id="_R_G_L_0_G_G_0_D_6_P_0_G_0_T_0" transform=" translate(38.7, 13.783)"><path id="_R_G_L_0_G_G_0_D_6_P_0" stroke="#02b2fd" stroke-linecap="round" stroke-linejoin="round" fill="none" stroke-width="1.5" stroke-opacity="1" d=" M0 2.73 C1.51,2.73 2.75,1.52 2.75,0 C2.75,-1.51 1.51,-2.73 0,-2.73 C-1.51,-2.73 -2.75,-1.51 -2.75,0 C-2.75,1.52 -1.51,2.73 0,2.73z "/></g></g></g></g><g id="time_group"/></svg>