<svg width="1241" height="157" viewBox="0 0 1241 157" fill="none" xmlns="http://www.w3.org/2000/svg">
<path d="M1123.81 26.349L1188.81 89.9998V26.349H1233.34V141.48H1188.93L1118.73 73.5361V141.48H1074.2V26.349H1123.81ZM1067.9 140.762V141.194L1068.35 140.762H1068.62V141.474H1068.35V141.069L1067.93 141.474H1067.63V140.762H1067.9ZM1075.64 140.044H1117.3V70.1472L1189.52 140.044H1231.91V27.7854H1190.25V93.4167L1123.22 27.7854H1075.64V140.044Z" fill="#262626"/>
<path d="M894.025 140.749C894.246 140.749 894.336 140.829 894.364 140.86C894.377 140.834 894.393 140.785 894.397 140.762H894.569V141.163H894.041V141.025H894.291C894.291 141.002 894.232 140.935 894.048 140.935C893.872 140.935 893.804 141.024 893.804 141.115V141.126C893.804 141.219 893.858 141.302 894.05 141.302C894.251 141.302 894.276 141.23 894.28 141.212H894.564C894.56 141.311 894.501 141.487 894.064 141.487H894.027C893.607 141.487 893.522 141.287 893.522 141.134V141.108C893.522 140.957 893.613 140.749 894.003 140.749H894.025ZM897.733 85.5954C897.733 97.4546 901.321 111.577 912.555 122.735C923.784 133.89 942.756 142.183 973.728 142.183H977.243C1012.49 142.183 1026.51 129.285 1030.81 124.539L1031.5 123.773L1031.98 124.691C1034.05 128.689 1036.38 136.136 1037.27 140.044H1063.32V77.4505H980.559V98.1718H1020.44V98.8899C1020.44 100.068 1019.71 101.582 1018.32 103.137C1016.91 104.719 1014.73 106.432 1011.65 108.011C1005.48 111.171 995.662 113.82 980.911 113.82C966.737 113.82 956.809 110.238 950.414 104.726C944.011 99.2071 941.224 91.8168 941.224 84.3732V82.6918C941.224 75.0626 943.448 67.8053 949.65 62.4727C955.831 57.1578 965.849 53.8555 981.217 53.8555C997.335 53.8556 1006.5 56.7325 1011.76 60.061C1016.52 63.0756 1018.03 66.4294 1018.58 68.2199H1062.53C1062.13 60.4649 1059.52 50.0441 1048.85 41.4568C1037.87 32.6251 1018.27 25.6458 983.509 25.6458H977.549C944.109 25.6458 924.182 33.6064 912.616 44.4763C901.058 55.3393 897.733 69.2181 897.733 81.3162V85.5954ZM1064 69.6563H1017.49L1017.35 69.1214C1017 67.7953 1015.9 64.3806 1010.99 61.2738C1006.05 58.1459 997.189 55.2919 981.217 55.2919C966.022 55.2919 956.402 58.5611 950.587 63.5611C944.793 68.5434 942.661 75.3453 942.661 82.6918V84.3732C942.661 91.4467 945.3 98.4213 951.352 103.638C957.411 108.861 966.968 112.384 980.911 112.384C995.5 112.384 1005.08 109.762 1010.99 106.733C1013.95 105.218 1015.97 103.605 1017.25 102.179C1018.17 101.158 1018.66 100.272 1018.88 99.6081H979.123V76.0141H1064.76V141.48H1036.1L1035.99 140.909C1035.28 137.538 1033.14 130.5 1031.15 126.271C1025.89 131.749 1011.21 143.619 977.243 143.619H973.728C942.505 143.619 923.12 135.255 911.542 123.755C899.968 112.258 896.297 97.7281 896.297 85.5954V81.3162C896.297 68.9641 899.696 54.6485 911.633 43.4299C923.562 32.218 943.903 24.2095 977.549 24.2095H983.509C1018.43 24.2095 1038.41 31.2134 1049.75 40.3375C1061.11 49.4849 1063.69 60.6766 1064 68.7585V69.6563Z" fill="#262626"/>
<path d="M889.954 26.349V141.48H845.271V26.349H889.954ZM838.971 140.762V141.474H838.7V140.762H838.971ZM846.707 140.044H888.517V27.7854H846.707V140.044Z" fill="#262626"/>
<path d="M733.237 58.547C733.237 57.3821 733.386 56.158 734.046 55.0067C734.71 53.8484 735.842 52.847 737.651 52.0283C741.223 50.4117 747.628 49.424 759.016 49.424H760.544C772.899 49.424 779.832 51.4148 783.751 54.0342C787.36 56.4458 788.345 59.3436 788.679 61.4964H834.554V60.9924C834.554 52.1781 831.435 43.4452 821.43 36.8747C811.366 30.2653 794.266 25.7982 766.199 25.7982H752.599C726.131 25.7982 709.951 29.8466 700.404 36.092C690.924 42.2941 687.912 50.7144 687.912 59.7692V61.1448C687.912 69.7495 690.779 77.7656 699.003 83.813C707.274 89.8945 721.046 94.048 742.991 94.6576L764.08 95.2692H764.083C775.997 95.651 782.821 96.7564 786.675 98.5645C788.629 99.481 789.87 100.6 790.606 101.937C791.335 103.263 791.52 104.721 791.52 106.225V106.378C791.52 107.829 791.289 109.319 790.499 110.723C789.707 112.131 788.39 113.387 786.332 114.431C782.255 116.499 775.155 117.793 762.99 117.793H761.614C749.16 117.793 741.973 115.298 737.835 111.9C733.956 108.714 732.86 104.82 732.536 101.748H686.231V102.557C686.231 109.859 687.844 119.703 697.119 127.746C706.423 135.814 723.562 142.183 754.891 142.183H768.797C798.623 142.183 816.049 137.296 826.008 130.15C835.907 123.048 838.527 113.638 838.527 104.239V102.099C838.527 96.4562 837.492 91.6517 835.31 87.5928C833.13 83.5382 829.78 80.1818 825.075 77.4692C815.631 72.024 800.771 69.1972 779.168 68.5865L758.695 68.1283C747.99 67.8988 741.676 66.8684 738.021 65.2593C736.177 64.4475 734.96 63.4677 734.213 62.323C733.465 61.175 733.237 59.9352 733.237 58.6995V58.547ZM683.909 140.749C684.283 140.749 684.35 140.871 684.35 140.991V141.004C684.35 141.148 684.244 141.21 683.973 141.218L683.845 141.222C683.711 141.225 683.69 141.247 683.69 141.276C683.69 141.304 683.705 141.329 683.847 141.329H683.856C684.01 141.329 684.026 141.279 684.029 141.254H684.325V141.262C684.325 141.375 684.244 141.486 683.892 141.486H683.807C683.475 141.486 683.397 141.385 683.397 141.27V141.261C683.397 141.151 683.471 141.054 683.747 141.046L683.879 141.042C684.028 141.038 684.046 141.014 684.046 140.978C684.046 140.943 684.024 140.91 683.872 140.91H683.864C683.709 140.91 683.688 140.972 683.685 141.01H683.387V141.001C683.387 140.908 683.428 140.749 683.822 140.749H683.909ZM734.673 58.6995C734.673 59.756 734.866 60.6952 735.416 61.5385C735.968 62.3851 736.93 63.2102 738.6 63.9455C741.974 65.4307 748.038 66.4629 758.727 66.6919L779.205 67.1511H779.209C800.853 67.7629 816.021 70.5906 825.793 76.2245C830.696 79.0513 834.252 82.5906 836.575 86.912C838.896 91.2291 839.963 96.2814 839.963 102.099V104.239C839.963 113.941 837.234 123.864 826.846 131.317C816.519 138.727 798.722 143.619 768.797 143.619H754.891C723.413 143.619 705.861 137.228 696.178 128.831C686.466 120.408 684.794 110.079 684.794 102.557V100.311H733.857L733.907 100.976C734.128 103.929 735.004 107.716 738.747 110.79C742.517 113.887 749.313 116.357 761.614 116.357H762.99C775.121 116.357 781.928 115.055 785.683 113.15C787.541 112.207 788.622 111.132 789.248 110.019C789.877 108.901 790.084 107.678 790.084 106.378V106.225C790.084 104.826 789.907 103.648 789.347 102.629C788.793 101.622 787.818 100.687 786.066 99.8653C782.509 98.1969 775.961 97.0868 764.036 96.7046L742.951 96.093C720.886 95.4801 706.768 91.3055 698.152 84.9707C689.491 78.6019 686.476 70.1137 686.476 61.1448V59.7692C686.476 50.3338 689.652 41.4101 699.618 34.8904C709.517 28.414 726.04 24.3619 752.599 24.3619H766.199C794.368 24.3619 811.806 28.8357 822.218 35.674C832.69 42.5513 835.99 51.7746 835.99 60.9924V62.9327H787.409L787.337 62.2941C787.122 60.3589 786.462 57.5734 782.954 55.2283C779.385 52.8431 772.793 50.8604 760.544 50.8604H759.016C747.636 50.8604 741.51 51.8596 738.244 53.3375C736.634 54.0658 735.77 54.8884 735.293 55.7211C734.811 56.5612 734.673 57.4962 734.673 58.547V58.6995Z" fill="#262626"/>
<path d="M680.716 26.349V55.5977H597.737V68.3733H679.035V97.4695H597.737V111.62H681.938V141.48H553.513V26.349H680.716ZM547.738 140.762V140.939H547.21V141.038H547.72V141.211H547.21V141.299H547.73V141.474H546.942V140.762H547.738ZM554.949 140.044H680.502V113.056H596.301V96.0331H677.598V69.8096H596.301V54.1613H679.28V27.7854H554.949V140.044Z" fill="#262626"/>
<path d="M546.207 80.858C546.207 67.6412 542.135 54.4236 530.023 44.4894C517.884 34.5334 497.561 27.7854 464.863 27.7854H384.894V140.044H465.015C498.776 140.044 519.051 132.687 530.881 122.248C542.693 111.826 546.207 98.2244 546.207 85.4429V80.858ZM377.394 140.762C377.818 140.762 377.907 140.947 377.907 141.109V141.137C377.907 141.304 377.803 141.474 377.393 141.474H376.887V140.762H377.394ZM377.159 140.951V141.287H377.361C377.598 141.287 377.625 141.185 377.625 141.123V141.117C377.625 141.055 377.598 140.951 377.361 140.951H377.159ZM501.126 83.15C501.126 78.2803 500.116 71.9469 494.556 66.8107C488.978 61.6571 478.686 57.5839 459.82 57.5839H428.294V109.939H459.82C478.683 109.939 488.974 105.791 494.553 100.563C500.116 95.35 501.126 88.938 501.126 84.0674V83.15ZM502.562 84.0674C502.562 89.1297 501.509 96.0124 495.535 101.611C489.576 107.195 478.855 111.376 459.82 111.376H426.858V56.1475H459.82C478.852 56.1475 489.572 60.2507 495.531 65.7559C501.509 71.2783 502.562 78.0868 502.562 83.15V84.0674ZM547.643 85.4429C547.643 98.487 544.049 112.545 531.831 123.326C519.632 134.09 498.951 141.48 465.015 141.48H383.458V26.349H464.863C497.723 26.349 518.431 33.1246 530.934 43.3785C543.462 53.6541 547.643 67.3323 547.643 80.858V85.4429Z" fill="#262626"/>
<path d="M228.165 26.349V70.496L282.928 26.5071L283.125 26.349H339.409L272.266 78.7596L341.319 141.48H282.64L228.165 91.5072V141.48H183.329V26.349H228.165ZM177.03 140.762V141.081L177.378 140.762H177.733L177.304 141.151L177.719 141.474H177.381L177.03 141.193V141.474H176.758V140.762H177.03ZM184.766 140.044H226.729V88.2408L283.199 140.044H337.601L270.038 78.6773L335.235 27.7854H283.631L226.729 73.493V27.7854H184.766V140.044Z" fill="#262626"/>
<path d="M175.57 81.3162C175.57 70.7171 173.222 56.8435 161.876 45.6097C150.525 34.3713 130.036 25.6458 93.4615 25.6458H86.5847C49.8563 25.6459 29.3304 34.3718 17.9797 45.6097C6.63392 56.8427 4.32417 70.7154 4.32412 81.3162V85.9011C4.32414 96.4256 6.63387 110.454 17.9834 121.86C29.3352 133.268 49.8604 142.183 86.5847 142.183H93.4615C130.109 142.183 150.596 133.268 161.929 121.86C173.26 110.454 175.57 96.4257 175.57 85.9011V81.3162ZM0.676223 140.749C1.13681 140.749 1.19521 140.973 1.19521 141.106V141.134C1.19521 141.268 1.13585 141.487 0.676223 141.487H0.633207C0.171788 141.487 0.113281 141.268 0.113281 141.134V141.106C0.113281 140.973 0.171788 140.749 0.633207 140.749H0.676223ZM0.654715 140.94C0.444052 140.94 0.394752 141.041 0.394752 141.116V141.127C0.394752 141.203 0.440221 141.296 0.654715 141.296C0.865121 141.296 0.913743 141.203 0.913743 141.127V141.114C0.913743 141.038 0.865122 140.94 0.654715 140.94ZM130.642 82.386C130.642 76.5083 128.75 70.0067 122.796 64.9591C116.824 59.8961 106.664 56.2092 89.9464 56.2092C72.9192 56.2093 62.7635 59.8979 56.8713 64.9563C50.9993 69.9975 49.252 76.4949 49.2519 82.386V84.2198C49.2519 90.0241 51.1461 96.802 57.1116 102.138C63.0856 107.481 73.242 111.467 89.9464 111.467C106.658 111.467 116.816 107.63 122.788 102.399C128.747 97.1807 130.642 90.4844 130.642 84.5256V82.386ZM132.078 84.5256C132.078 90.7919 130.077 97.9258 123.734 103.48C117.405 109.024 106.854 112.904 89.9464 112.904C73.032 112.904 62.4816 108.867 56.154 103.207C49.8182 97.5403 47.8156 90.3349 47.8156 84.2198V82.386C47.8156 76.205 49.6597 69.2543 55.9361 63.866C62.1927 58.495 72.7438 54.773 89.9464 54.7729C106.848 54.7729 117.395 58.4967 123.725 63.8632C130.073 69.2451 132.078 76.1915 132.078 82.386V84.5256ZM177.006 85.9011C177.006 96.6179 174.654 111.089 162.948 122.873C151.244 134.655 130.318 143.619 93.4615 143.619H86.5847C49.6523 143.619 28.6884 134.655 16.9651 122.873C5.23963 111.089 2.88779 96.618 2.88778 85.9011V81.3162C2.88782 70.523 5.23964 56.2012 16.9688 44.5885C28.6932 32.9807 49.6566 24.2095 86.5847 24.2095H93.4615C130.238 24.2095 151.163 32.9811 162.887 44.5885C174.615 56.2004 177.006 70.5213 177.006 81.3162V85.9011Z" fill="#262626"/>
</svg>
