<svg width="128" height="128" viewBox="0 0 128 128" fill="none" xmlns="http://www.w3.org/2000/svg">
<g clip-path="url(#clip0_1098_9)">
<rect width="128" height="128" rx="64" fill="black"/>
<g clip-path="url(#clip1_1098_9)">
<rect width="167.385" height="167.385" transform="translate(-21.3662 -21.4648)" fill="url(#paint0_linear_1098_9)"/>
<g filter="url(#filter0_f_1098_9)">
<path d="M198.463 34.7605C163.407 127.833 41.935 32.9754 69.5346 -40.3003C85.8487 -83.6132 41.6042 -204.082 89.5943 -186.006C137.584 -167.93 214.777 -8.55241 198.463 34.7605Z" fill="#111580"/>
<path d="M239.855 -15.881C283.132 7.3356 254.698 41.341 219.025 107.836C183.353 174.331 174.961 235.7 131.684 212.484C88.4068 189.267 82.2421 116.541 117.914 50.0461C153.587 -16.4489 196.578 -39.0977 239.855 -15.881Z" fill="#070830"/>
<path d="M48.1448 160.312C33.0391 191.583 68.5379 238.309 33.89 221.572C-0.757826 204.835 -73.0915 140.316 -57.9858 109.045C-42.8802 77.7742 -2.54697 65.9919 32.1009 82.7288C66.7487 99.4656 63.2505 129.041 48.1448 160.312Z" fill="#040993"/>
</g>
</g>
<path d="M28.1836 31.3228C28.1836 29.1798 29.8481 26.8668 31.8752 26.1763L51.936 19.4219C53.9655 18.7389 55.6325 19.9324 55.6325 22.0803V73.5504L31.8752 81.5327C29.8481 82.2183 28.1836 81.0223 28.1836 78.8793V31.3253V31.3228Z" fill="#BCBCBC"/>
<path d="M74.0015 49.771C75.3183 48.072 78.0531 46.1263 80.0875 45.4408L104.602 37.1822C106.639 36.4942 107.647 37.5126 106.335 39.2092L88.3091 62.5227L55.6299 73.5506L73.999 49.7735L74.0015 49.771Z" fill="#9B9C9C"/>
<path d="M55.6323 73.3829L88.3116 62.355L106.989 88.5684C108.237 90.3119 107.591 92.2995 105.559 92.9899L80.5486 101.416C78.5167 102.102 75.8238 101.239 74.5637 99.5075L55.6348 73.3853L55.6323 73.3829Z" fill="#E2E2E2"/>
</g>
<defs>
<filter id="filter0_f_1098_9" x="-87.7027" y="-215.51" width="377.094" height="468.271" filterUnits="userSpaceOnUse" color-interpolation-filters="sRGB">
<feFlood flood-opacity="0" result="BackgroundImageFix"/>
<feBlend mode="normal" in="SourceGraphic" in2="BackgroundImageFix" result="shape"/>
<feGaussianBlur stdDeviation="13.8353" result="effect1_foregroundBlur_1098_9"/>
</filter>
<linearGradient id="paint0_linear_1098_9" x1="121.267" y1="83.6923" x2="-32.4639" y2="56.2537" gradientUnits="userSpaceOnUse">
<stop stop-color="#03041F"/>
<stop offset="1" stop-color="#0D1285"/>
</linearGradient>
<clipPath id="clip0_1098_9">
<rect width="128" height="128" rx="64" fill="white"/>
</clipPath>
<clipPath id="clip1_1098_9">
<rect width="167.385" height="167.385" fill="white" transform="translate(-21.3662 -21.4648)"/>
</clipPath>
</defs>
</svg>
