<svg width="2000" height="2000" viewBox="0 0 2000 2000" fill="none" xmlns="http://www.w3.org/2000/svg">
<rect width="2000" height="2000" rx="1000" fill="white"/>
<path d="M440.367 489.416C440.367 455.933 466.376 419.791 498.048 409.002L811.498 303.465C843.209 292.792 869.256 311.441 869.256 345.002V1149.22L498.048 1273.95C466.376 1284.66 440.367 1265.97 440.367 1232.49V489.455V489.416Z" fill="#424242"/>
<path d="M1156.27 777.666C1176.85 751.118 1219.58 720.717 1251.37 710.006L1634.41 580.965C1666.23 570.215 1681.99 586.129 1661.49 612.638L1379.83 976.91L869.218 1149.22L1156.24 777.705L1156.27 777.666Z" fill="#242424"/>
<path d="M869.256 1146.6L1379.87 974.29L1671.7 1383.88C1691.2 1411.12 1681.1 1442.17 1649.36 1452.96L1258.57 1584.62C1226.82 1595.33 1184.75 1581.85 1165.06 1554.8L869.294 1146.64L869.256 1146.6Z" fill="#868686"/>
</svg>
