<svg width="647" height="206" viewBox="0 0 647 206" fill="none" xmlns="http://www.w3.org/2000/svg">
<path d="M621.774 60.4134V64.0964H631.877C633.769 64.0964 634.445 63.3193 634.445 62.2718V62.238C634.445 61.1905 633.769 60.4134 631.877 60.4134H621.774ZM621.774 70.7191V79.0313H610.387V53.892H635.965C642.284 53.892 646.17 55.6828 646.17 60.2782V60.6161C646.17 64.4005 642.791 65.8197 640.696 66.3603C644.244 67.0699 646.271 69.2662 646.271 72.51V76.2944C646.271 77.7811 646.474 78.3893 646.744 78.8286V79.0313H635.053C634.884 78.8624 634.816 78.5245 634.816 78.0176V75.0104C634.816 72.3072 633.532 70.7191 629.849 70.7191H621.774Z" fill="white"/>
<path d="M578.775 53.892H607.969V60.5485H589.993V63.0151H607.699V69.5703H589.993V72.3072H608.138V79.0313H578.775V53.892Z" fill="white"/>
<path d="M564.932 71.7328H553.139V79.0313H541.752V53.892H564.932C574.426 53.892 577.096 57.6426 577.096 62.3394V63.0827C577.096 67.7119 574.359 71.7328 564.932 71.7328ZM553.139 60.785V64.7046H562.668C564.661 64.7046 565.337 63.8599 565.337 62.7786V62.711C565.337 61.596 564.661 60.785 562.668 60.785H553.139Z" fill="white"/>
<path d="M502.313 65.7183V53.892H513.768V64.637C513.768 67.5429 515.018 70.8543 520.83 70.8543H520.864C526.574 70.8543 527.926 67.5429 527.926 64.637V53.892H539.38V65.7183C539.38 70.6178 537.252 79.4368 521.641 79.4368H520.087C504.273 79.4368 502.313 70.6516 502.313 65.7183Z" fill="white"/>
<path d="M484.547 79.5045H480.729C466.098 79.5045 464.645 73.9293 464.645 70.6855V70.3814H477.688C477.789 71.564 478.296 73.4562 482.723 73.4562H482.858C486.912 73.4562 487.723 72.4763 487.723 71.4288V71.3613C487.723 70.3138 487.25 69.5028 482.486 69.3339L477.485 69.1987C467.382 68.9284 465.051 65.3467 465.051 61.3934V61.0893C465.051 56.6629 468.396 53.4529 480.323 53.4529H484.04C497.083 53.4529 500.09 57.2035 500.09 61.3596V61.5961H487.25C487.149 60.6838 486.676 59.2647 482.418 59.2647H482.249C478.33 59.2647 477.789 59.9404 477.789 60.8528V60.8865C477.789 61.8664 478.668 62.5084 482.925 62.6098L487.723 62.7112C497.421 62.9815 501.003 65.2454 501.003 70.3814V70.8544C501.003 75.2132 498.333 79.5045 484.547 79.5045Z" fill="white"/>
<path d="M423.951 53.892H453.145V60.5485H435.169V63.0151H452.875V69.5703H435.169V72.3072H453.314V79.0313H423.951V53.892Z" fill="white"/>
<path d="M384.42 79.0313V53.892H403.545C417.973 53.892 422.062 59.5348 422.062 65.7859V66.8334C422.062 72.7803 418.75 79.0313 403.545 79.0313H384.42ZM395.807 61.1567V71.7666H401.822C409.56 71.7666 410.235 68.2525 410.235 66.4617V66.2589C410.235 64.4681 409.526 61.1567 401.822 61.1567H395.807Z" fill="white"/>
<path d="M381.782 53.892V79.0313H370.429V53.892H381.782Z" fill="white"/>
<path d="M336.833 79.0313H322L312.741 53.892H325.683L330.582 69.5703L335.009 53.892H348.355L352.782 69.6041L357.445 53.892H369.508L360.148 79.0313H345.652L341.226 64.1978L336.833 79.0313Z" fill="white"/>
<path d="M280.026 79.0312V61.7648H269.18V53.8919H302.293V61.7648H291.447V79.0312H280.026Z" fill="white"/>
<path d="M243.072 79.0313H229.522L240.031 65.921L230.029 53.892H244.119L249.796 61.3257L255.506 53.892H268.65L259.088 65.8872L269.461 79.0313H255.641L249.323 71.1584L243.072 79.0313Z" fill="white"/>
<path d="M199.535 53.892H228.729V60.5485H210.753V63.0151H228.459V69.5703H210.753V72.3072H228.898V79.0313H199.535V53.892Z" fill="white"/>
<path d="M175.193 79.0313V61.7649H164.347V53.892H197.46V61.7649H186.614V79.0313H175.193Z" fill="white"/>
<path d="M128 79.0313H116.613V53.892H128V63.2517L139.826 53.892H153.815L139.015 65.2452L154.052 79.0313H139.184L128 68.4214V79.0313Z" fill="white"/>
<path d="M77.1745 65.7183V53.892H88.6291V64.637C88.6291 67.5429 89.8793 70.8543 95.6911 70.8543H95.7249C101.435 70.8543 102.787 67.5429 102.787 64.637V53.892H114.241V65.7183C114.241 70.6178 112.113 79.4368 96.502 79.4368H94.9477C79.1343 79.4368 77.1745 70.6516 77.1745 65.7183Z" fill="white"/>
<path d="M50.9179 60.4134V64.0964H61.0209C62.9131 64.0964 63.5889 63.3193 63.5889 62.2718V62.238C63.5889 61.1905 62.9131 60.4134 61.0209 60.4134H50.9179ZM50.9179 70.7191V79.0313H39.5309V53.892H65.1094C71.428 53.892 75.3138 55.6828 75.3138 60.2782V60.6161C75.3138 64.4005 71.9349 65.8197 69.8399 66.3603C73.3878 67.0699 75.4152 69.2662 75.4152 72.51V76.2944C75.4152 77.7811 75.6179 78.3893 75.8882 78.8286V79.0313H64.1971C64.0282 78.8624 63.9606 78.5245 63.9606 78.0176V75.0104C63.9606 72.3072 62.6766 70.7191 58.9935 70.7191H50.9179Z" fill="white"/>
<path d="M0 79.0313V53.892H19.1248C33.5529 53.892 37.6414 59.5348 37.6414 65.7859V66.8334C37.6414 72.7803 34.33 79.0313 19.1248 79.0313H0ZM11.387 61.1567V71.7666H17.4015C25.1393 71.7666 25.8151 68.2525 25.8151 66.4617V66.2589C25.8151 64.4681 25.1055 61.1567 17.4015 61.1567H11.387Z" fill="white"/>
<path d="M636.058 35.8965L637.73 25.4442H644.3L642.628 36.0757C641.851 40.615 640.119 45.453 634.027 45.453H632.474C625.964 45.453 624.411 40.7345 625.187 35.9563L629.428 9.01898C630.085 4.47966 632.056 7.19472e-05 637.969 7.19472e-05H639.522C646.749 7.19472e-05 647.466 5.01721 646.809 9.49681L645.614 17.142H639.044L640.298 9.37735C640.597 7.40633 640 6.45069 638.447 6.45069C636.834 6.45069 636.356 7.46606 636.058 9.37735L631.877 35.9563C631.638 37.6286 631.996 38.8829 633.609 38.8829C635.222 38.8829 635.759 37.7481 636.058 35.8965Z" fill="white"/>
<path d="M628.218 0.417937L621.17 44.8555H614.6L621.648 0.417937H628.218Z" fill="white"/>
<path d="M605.083 0.417937H611.653L605.68 37.9868H613.684L612.609 44.8555H598.035L605.083 0.417937Z" fill="white"/>
<path d="M590.481 44.8555L590.899 36.4936H586.121L583.971 44.8555H577.938L590.302 0.417937H598.126L596.753 44.8555H590.481ZM587.794 29.8638H591.258L592.154 13.0803L587.794 29.8638Z" fill="white"/>
<path d="M569.306 0.417937H586.866L585.851 6.92828H580.415L574.383 44.8555H567.813L573.845 6.92828H568.291L569.306 0.417937Z" fill="white"/>
<path d="M567.499 0.417937L560.451 44.8555H553.881L560.929 0.417937H567.499Z" fill="white"/>
<path d="M522.617 44.8555L529.665 0.417937H537.788L537.191 23.891L544.06 0.417937H552.242L545.194 44.8555H539.042L543.642 16.1264L535.16 44.8555H532.532L533.01 16.1264L528.411 44.8555H522.617Z" fill="white"/>
<path d="M503.87 35.0004L509.365 0.417937H516.055L510.441 35.7171C510.142 37.6284 510.62 38.823 512.232 38.823C513.726 38.823 514.383 37.6284 514.681 35.7171L520.296 0.417937H526.985L521.49 35.0004C520.475 41.451 518.026 45.4528 512.292 45.4528H511.396C505.603 45.4528 502.855 41.6302 503.87 35.0004Z" fill="white"/>
<path d="M506.663 0.418041L499.615 44.8556H493.045L500.093 0.418041H506.663Z" fill="white"/>
<path d="M472.98 44.8555L480.028 0.417937H489.226C494.96 0.417937 496.931 3.64324 496.035 9.13821L491.795 36.0158C491.018 41.451 489.107 44.8555 483.731 44.8555H472.98ZM485.643 6.45045L480.566 38.4049H482.178C484.149 38.4049 484.747 37.3298 485.165 34.9407L489.107 9.91467C489.525 7.34637 488.928 6.45045 487.315 6.45045H485.643Z" fill="white"/>
<path d="M462.821 0.417937H477.693L476.678 6.86855H468.376L466.524 18.5155H473.035L471.96 25.2647H465.449L463.418 38.1062H472.079L471.004 44.8555H455.773L462.821 0.417937Z" fill="white"/>
<path d="M430.459 44.8555L437.507 0.417937H445.63L445.033 23.891L451.901 0.417937H460.084L453.036 44.8555H446.884L451.483 16.1264L443.002 44.8555H440.374L440.852 16.1264L436.253 44.8555H430.459Z" fill="white"/>
<path d="M414.413 25.0258L411.248 44.8555H404.678L411.726 0.417937H421.64C426.359 0.417937 428.569 2.56814 427.852 7.28665L426.598 15.2305C426.06 18.6349 424.507 20.1879 422.775 20.8449C423.791 21.5019 425.343 22.6367 424.866 26.0412L422.477 41.0926C422.178 43.0039 422.357 43.8998 422.536 44.5569L422.477 44.8555H415.966C415.727 44.1388 415.608 43.0039 415.906 41.0926L417.997 27.9525C418.415 25.6231 418.057 25.0258 416.086 25.0258H414.413ZM417.34 6.45045L415.369 18.6947H417.22C419.072 18.6947 419.61 17.6196 419.908 15.7083L420.924 9.31739C421.222 7.4061 420.864 6.45045 418.953 6.45045H417.34Z" fill="white"/>
<path d="M410.599 0.417937L400.743 26.5788L397.817 44.8555H391.247L394.233 26.1607L392.322 0.417937H398.534L398.892 17.082L404.387 0.417937H410.599Z" fill="white"/>
<path d="M380.231 35.8965L381.903 25.4441H388.473L386.801 36.0757C386.024 40.615 384.292 45.4529 378.2 45.4529H376.647C370.137 45.4529 368.584 40.7344 369.36 35.9562L373.601 9.01891C374.258 4.47959 376.229 0 382.142 0H383.695C390.922 0 391.639 5.01714 390.982 9.49674L389.787 17.1419H383.217L384.471 9.37728C384.77 7.40626 384.173 6.45061 382.62 6.45061C381.007 6.45061 380.529 7.46599 380.231 9.37728L376.05 35.9562C375.811 37.6286 376.169 38.8829 377.782 38.8829C379.395 38.8829 379.932 37.748 380.231 35.8965Z" fill="white"/>
<path d="M353.314 17.4404L360.899 0.417937H367.529L358.152 21.263L361.138 44.8555H354.389L352 25.7426L348.953 44.8555H342.383L349.431 0.417937H356.001L353.314 17.4404Z" fill="white"/>
<path d="M323.637 35.0004L329.132 0.417937H335.821L330.207 35.7171C329.908 37.6284 330.386 38.823 331.999 38.823C333.492 38.823 334.149 37.6284 334.448 35.7171L340.062 0.417937H346.752L341.257 35.0004C340.241 41.451 337.792 45.4528 332.059 45.4528H331.163C325.369 45.4528 322.622 41.6302 323.637 35.0004Z" fill="white"/>
<path d="M312.048 25.0258L308.882 44.8555H302.312L309.36 0.417937H319.275C323.994 0.417937 326.203 2.56814 325.487 7.28665L324.232 15.2305C323.695 18.6349 322.142 20.1879 320.41 20.8449C321.425 21.5019 322.978 22.6367 322.5 26.0412L320.111 41.0926C319.813 43.0039 319.992 43.8998 320.171 44.5569L320.111 44.8555H313.601C313.362 44.1388 313.243 43.0039 313.541 41.0926L315.632 27.9525C316.05 25.6231 315.691 25.0258 313.72 25.0258H312.048ZM314.975 6.45045L313.004 18.6947H314.855C316.707 18.6947 317.244 17.6196 317.543 15.7083L318.558 9.31739C318.857 7.4061 318.499 6.45045 316.587 6.45045H314.975Z" fill="white"/>
<path d="M282.247 44.8555L289.295 0.417937H298.493C304.227 0.417937 306.198 3.64324 305.302 9.13821L301.062 36.0158C300.285 41.451 298.374 44.8555 292.998 44.8555H282.247ZM294.91 6.45045L289.833 38.4049H291.445C293.417 38.4049 294.014 37.3298 294.432 34.9407L298.374 9.91467C298.792 7.34637 298.195 6.45045 296.582 6.45045H294.91Z" fill="white"/>
<path d="M246.727 44.8555V0.417937H255.388L258.613 23.891L261.898 0.417937H269.961V44.8555H263.63V16.1264L259.569 44.8555H256.881L252.76 16.1264V44.8555H246.727Z" fill="white"/>
<path d="M226.018 35.1796V0.417937H232.887V35.5977C232.887 37.509 233.544 38.7632 235.037 38.7632C236.65 38.7632 237.247 37.5687 237.247 35.5977V0.417937H244.116V35.1796C244.116 41.451 241.607 45.393 235.635 45.393H234.44C228.467 45.393 226.018 41.6302 226.018 35.1796Z" fill="white"/>
<path d="M223.38 0.417937V44.8555H216.63V0.417937H223.38Z" fill="white"/>
<path d="M196.099 44.8555V0.417937H206.432C212.225 0.417937 214.017 3.70297 214.017 8.95903V36.0158C214.017 41.5107 211.987 44.8555 206.432 44.8555H196.099ZM202.848 6.45045V38.4049H204.461C206.551 38.4049 207.089 37.3298 207.089 34.9407V9.91467C207.089 7.34637 206.432 6.45045 204.759 6.45045H202.848Z" fill="white"/>
<path d="M178.425 0.417937H193.776V6.86855H185.175V18.5155H191.924V25.2647H185.175V38.1062H194.134V44.8555H178.425V0.417937Z" fill="white"/>
<path d="M152.469 44.8555V0.417937H161.13L164.355 23.891L167.64 0.417937H175.703V44.8555H169.372V16.1264L165.311 44.8555H162.623L158.502 16.1264V44.8555H152.469Z" fill="white"/>
<path d="M132.913 6.45045V18.6947H134.705C136.556 18.6947 137.154 17.5001 137.154 15.5291V9.31739C137.154 7.4061 136.795 6.45045 134.705 6.45045H132.913ZM132.913 25.0258V44.8555H126.164V0.417937H137.094C141.633 0.417937 143.843 2.2695 143.843 7.28665V15.1707C143.843 18.8739 142.111 20.3671 140.916 20.8449C142.41 21.5019 143.843 22.6367 143.843 25.6828V41.2718C143.843 43.1234 144.202 43.8998 144.5 44.5569V44.8555H137.811C137.512 44.3777 137.154 43.6012 137.154 41.2121V27.833C137.154 25.862 136.795 25.0258 134.645 25.0258H132.913Z" fill="white"/>
<path d="M125.049 0.417937L119.136 26.3996V44.8555H112.387V26.3398L106.294 0.417937H112.864L115.97 17.0223L118.957 0.417937H125.049Z" fill="white"/>
<path d="M98.8918 35.8367V25.5038H105.522V35.777C105.522 40.5552 103.909 45.3932 97.4584 45.3932H95.9652C89.0965 45.3932 87.663 40.4955 87.663 36.0159V8.89945C87.663 4.36014 89.634 0 95.7263 0H97.2792C104.685 0 105.522 4.89769 105.522 9.25782V17.2016H98.8918V9.37728C98.8918 7.46599 98.2946 6.45061 96.6222 6.45061C94.9498 6.45061 94.5317 7.40626 94.5317 9.37728V35.777C94.5317 37.8078 95.2484 38.8231 96.6819 38.8231C98.2946 38.8231 98.8918 37.6883 98.8918 35.8367Z" fill="white"/>
<path d="M68.1106 25.5634V44.8555H61.3614V0.417937H68.1106V18.2169L73.4264 0.417937H79.9965L73.725 21.0838L80.6535 44.8555H73.725L68.1106 25.5634Z" fill="white"/>
<path d="M40.6516 35.1796V0.417937H47.5204V35.5977C47.5204 37.509 48.1774 38.7632 49.6706 38.7632C51.2832 38.7632 51.8805 37.5687 51.8805 35.5977V0.417937H58.7492V35.1796C58.7492 41.451 56.2406 45.393 50.2678 45.393H49.0733C43.1005 45.393 40.6516 41.6302 40.6516 35.1796Z" fill="white"/>
<path d="M27.2811 6.45045V18.6947H29.0729C30.9245 18.6947 31.5218 17.5001 31.5218 15.5291V9.31739C31.5218 7.4061 31.1634 6.45045 29.0729 6.45045H27.2811ZM27.2811 25.0258V44.8555H20.5319V0.417937H31.4621C36.0014 0.417937 38.2113 2.2695 38.2113 7.28665V15.1707C38.2113 18.8739 36.4792 20.3671 35.2846 20.8449C36.7778 21.5019 38.2113 22.6367 38.2113 25.6828V41.2718C38.2113 43.1234 38.5697 43.8998 38.8683 44.5569V44.8555H32.1788C31.8802 44.3777 31.5218 43.6012 31.5218 41.2121V27.833C31.5218 25.862 31.1634 25.0258 29.0132 25.0258H27.2811Z" fill="white"/>
<path d="M0 44.8555V0.417937H10.3329C16.1265 0.417937 17.9184 3.70297 17.9184 8.95903V36.0158C17.9184 41.5107 15.8876 44.8555 10.3329 44.8555H0ZM6.74925 6.45045V38.4049H8.36191C10.4524 38.4049 10.9899 37.3298 10.9899 34.9407V9.91467C10.9899 7.34637 10.3329 6.45045 8.66055 6.45045H6.74925Z" fill="white"/>
<path d="M635.924 125.496C636.321 125.496 636.435 125.326 636.605 124.587L638.877 110.334H644.101L641.83 124.644C641.375 127.54 640.183 130.323 636.094 130.323H635.242C630.983 130.323 629.45 127.881 630.074 124.19L635.015 93.4105C635.64 89.6056 637.059 87.5045 641.148 87.5045H642C645.578 87.5045 647.509 89.3785 646.884 93.013L644.839 105.847H639.558L641.603 93.1265C641.659 92.729 641.773 92.2179 641.148 92.2179C640.751 92.2179 640.694 92.3883 640.523 93.1265L635.469 124.644C635.413 125.042 635.299 125.496 635.924 125.496Z" fill="white"/>
<path d="M634.995 87.7884L628.237 130.039H622.899L629.657 87.7884H634.995Z" fill="white"/>
<path d="M620.173 87.7884H625.512L619.606 124.871H622.956L622.161 130.039H613.416L620.173 87.7884Z" fill="white"/>
<path d="M609.503 116.637L611.604 98.8622L608.14 116.637H609.503ZM607.913 130.039L608.935 121.464H607.175L605.528 130.039H600.815L610.128 87.7884H616.999L613.024 130.039H607.913Z" fill="white"/>
<path d="M594.17 130.039L600.076 92.8426H597.691L598.543 87.7884H608.651L607.856 92.8426H605.414L599.508 130.039H594.17Z" fill="white"/>
<path d="M597.727 87.7884L590.969 130.039H585.631L592.389 87.7884H597.727Z" fill="white"/>
<path d="M580.908 92.0475L578.693 105.847H579.204C579.602 105.847 579.715 105.79 579.886 105.052L581.817 92.9561C581.93 92.3315 581.76 92.0475 581.362 92.0475H580.908ZM574.832 130.039H569.494L576.251 87.7884H584.145C586.246 87.7884 587.779 88.9809 587.325 91.65L585.338 104.087C584.94 106.131 584.031 107.04 582.952 107.437C583.634 107.778 584.656 108.63 584.372 110.788L581.533 128.506C581.419 129.131 581.419 129.642 581.533 129.926V130.039H576.308C576.081 129.755 576.024 129.244 576.138 128.619L578.864 111.412C579.034 110.731 578.75 110.617 578.353 110.617H577.955L574.832 130.039Z" fill="white"/>
<path d="M566.324 87.7884H575.354L574.558 92.8426H570.867L568.88 105.166H572.06L571.265 110.39H568.028L565.699 124.928H569.561L568.766 130.039H559.566L566.324 87.7884Z" fill="white"/>
<path d="M558.219 111.81H555.323L552.427 130.039H547.089L553.847 87.7884H561.343C563.785 87.7884 565.261 89.0377 564.807 92.1611L562.365 107.551C561.854 110.674 560.434 111.81 558.219 111.81ZM558.503 92.1043L556.061 107.324H556.459C556.913 107.324 557.084 107.21 557.254 106.529L559.412 93.0697C559.526 92.4451 559.355 92.1043 558.901 92.1043H558.503Z" fill="white"/>
<path d="M540.983 130.323H540.188C536.099 130.323 534.452 127.938 534.963 124.701L540.869 87.7884H546.321L540.528 124.36C540.358 125.042 540.585 125.212 540.983 125.212C541.38 125.212 541.494 125.042 541.664 124.36L547.457 87.7884H552.965L547.059 124.758C546.548 127.938 544.901 130.323 540.983 130.323Z" fill="white"/>
<path d="M528.283 130.323H527.033C523.342 130.323 521.525 128.279 522.15 124.815L524.194 112.037H529.419L527.374 124.871C527.317 125.269 527.374 125.723 527.885 125.723C528.283 125.723 528.396 125.553 528.567 124.871L530.327 113.911C530.498 112.775 530.27 112.321 529.646 111.356L527.715 108.459C526.125 106.131 525.5 104.655 525.954 101.872L527.431 92.6154C527.942 89.3784 529.305 87.5044 533.167 87.5044H534.416C538.221 87.5044 539.527 89.3784 539.073 92.2747L537.255 103.576H532.201L533.962 92.6154C534.018 92.2179 533.962 91.8204 533.507 91.8204C533.053 91.8204 532.996 92.0475 532.826 92.729L531.349 101.986C531.179 103.065 531.406 103.632 531.86 104.314L533.791 107.21C535.608 110.106 536.347 111.356 535.892 113.968L534.189 124.758C533.564 128.392 532.088 130.323 528.283 130.323Z" fill="white"/>
<path d="M516.687 92.0475L514.473 105.847H514.984C515.381 105.847 515.495 105.79 515.665 105.052L517.596 92.9561C517.71 92.3315 517.539 92.0475 517.142 92.0475H516.687ZM510.611 130.039H505.273L512.031 87.7884H519.924C522.026 87.7884 523.559 88.9809 523.104 91.65L521.117 104.087C520.719 106.131 519.811 107.04 518.732 107.437C519.413 107.778 520.435 108.63 520.152 110.788L517.312 128.506C517.199 129.131 517.199 129.642 517.312 129.926V130.039H512.088C511.86 129.755 511.804 129.244 511.917 128.619L514.643 111.412C514.813 110.731 514.529 110.617 514.132 110.617H513.734L510.611 130.039Z" fill="white"/>
<path d="M496.357 130.039L499.026 112.889L499.651 87.7884H504.819L503.285 103.576L506.693 87.7884H511.633L504.364 112.832L501.695 130.039H496.357Z" fill="white"/>
<path d="M487.907 125.496C488.304 125.496 488.418 125.326 488.588 124.587L490.86 110.333H496.085L493.813 124.644C493.359 127.54 492.166 130.323 488.077 130.323H487.225C482.966 130.323 481.433 127.881 482.058 124.19L486.998 93.4104C487.623 89.6056 489.043 87.5044 493.132 87.5044H493.983C497.561 87.5044 499.492 89.3784 498.867 93.0129L496.823 105.847H491.541L493.586 93.1265C493.643 92.729 493.756 92.2179 493.132 92.2179C492.734 92.2179 492.677 92.3882 492.507 93.1265L487.453 124.644C487.396 125.042 487.282 125.496 487.907 125.496Z" fill="white"/>
<path d="M464.9 130.039L471.658 87.7884H478.927C481.369 87.7884 483.413 89.0945 482.788 92.5586L477.677 124.701C477.053 128.392 475.747 130.039 473.078 130.039H464.9ZM476.258 92.3315L470.976 125.382H471.431C472.055 125.382 472.112 125.099 472.283 124.417L477.28 93.4104C477.45 92.729 477.394 92.3315 476.769 92.3315H476.258Z" fill="white"/>
<path d="M461.731 87.7884H470.761L469.966 92.8426H466.274L464.287 105.166H467.467L466.672 110.39H463.435L461.106 124.928H464.968L464.173 130.039H454.973L461.731 87.7884Z" fill="white"/>
<path d="M449.145 130.323H447.896C444.205 130.323 442.387 128.279 443.012 124.815L445.056 112.037H450.281L448.237 124.871C448.18 125.269 448.237 125.723 448.748 125.723C449.145 125.723 449.259 125.553 449.429 124.871L451.19 113.911C451.36 112.775 451.133 112.321 450.508 111.356L448.577 108.459C446.987 106.131 446.363 104.655 446.817 101.872L448.293 92.6154C448.804 89.3784 450.167 87.5044 454.029 87.5044H455.278C459.083 87.5044 460.389 89.3784 459.935 92.2747L458.118 103.576H453.064L454.824 92.6154C454.881 92.2179 454.824 91.8204 454.37 91.8204C453.915 91.8204 453.859 92.0475 453.688 92.729L452.212 101.986C452.041 103.065 452.269 103.632 452.723 104.314L454.654 107.21C456.471 110.106 457.209 111.356 456.755 113.968L455.051 124.758C454.427 128.392 452.95 130.323 449.145 130.323Z" fill="white"/>
<path d="M436.221 87.7884H441.729L439.912 112.264L443.717 87.7884H448.089L441.388 130.039H436.334L438.208 102.781L433.892 130.039H429.463L436.221 87.7884Z" fill="white"/>
<path d="M426.294 87.7884H435.323L434.528 92.8426H430.837L428.849 105.166H432.03L431.234 110.39H427.998L425.669 124.928H429.531L428.736 130.039H419.536L426.294 87.7884Z" fill="white"/>
<path d="M406.725 130.039L413.483 87.7884H420.752C423.194 87.7884 425.238 89.0945 424.613 92.5586L419.502 124.701C418.878 128.392 417.572 130.039 414.902 130.039H406.725ZM418.083 92.3315L412.801 125.382H413.256C413.88 125.382 413.937 125.099 414.107 124.417L419.105 93.4104C419.275 92.729 419.218 92.3315 418.594 92.3315H418.083Z" fill="white"/>
<path d="M400.672 87.7884H406.18L404.363 112.264L408.168 87.7884H412.541L405.839 130.039H400.785L402.659 102.781L398.343 130.039H393.914L400.672 87.7884Z" fill="white"/>
<path d="M398.716 94.0351L393.889 124.36C393.264 127.768 391.674 130.323 387.813 130.323H387.018C382.929 130.323 381.112 127.938 381.736 123.849L386.507 94.0351C387.131 90.1167 388.551 87.5044 392.64 87.5044H393.435C397.694 87.5044 399.341 90.1167 398.716 94.0351ZM388.381 124.247L393.321 93.3536C393.435 92.729 393.264 92.3882 392.81 92.3882C392.469 92.3882 392.242 92.729 392.129 93.3536L387.188 124.247C387.018 124.928 387.074 125.326 387.699 125.326C388.04 125.326 388.267 124.985 388.381 124.247Z" fill="white"/>
<path d="M374.884 125.496C375.282 125.496 375.395 125.326 375.566 124.587L377.837 110.333H383.062L380.79 124.644C380.336 127.54 379.143 130.323 375.055 130.323H374.203C369.944 130.323 368.41 127.881 369.035 124.19L373.976 93.4104C374.6 89.6056 376.02 87.5044 380.109 87.5044H380.961C384.538 87.5044 386.469 89.3784 385.844 93.0129L383.8 105.847H378.519L380.563 93.1265C380.62 92.729 380.733 92.2179 380.109 92.2179C379.711 92.2179 379.654 92.3882 379.484 93.1265L374.43 124.644C374.373 125.042 374.26 125.496 374.884 125.496Z" fill="white"/>
<path d="M360.865 130.039H355.527L361.092 108.005L362.398 87.7884H367.793L365.862 104.427L369.27 87.7884H374.438L369.327 108.005L368.02 130.039H362.739L364.5 112.207L360.865 130.039Z" fill="white"/>
<path d="M344.904 130.039H339.566L346.324 87.7884H351.662L349.106 103.746L353.366 87.7884H358.647L352.968 107.778L352.173 130.039H346.551L347.63 112.662L344.904 130.039Z" fill="white"/>
<path d="M333.46 130.323H332.665C328.577 130.323 326.93 127.938 327.441 124.701L333.347 87.7884H338.799L333.006 124.36C332.836 125.042 333.063 125.212 333.46 125.212C333.858 125.212 333.972 125.042 334.142 124.36L339.934 87.7884H345.443L339.537 124.758C339.026 127.938 337.379 130.323 333.46 130.323Z" fill="white"/>
<path d="M325.359 92.0475L323.144 105.847H323.655C324.053 105.847 324.166 105.79 324.337 105.052L326.267 92.9561C326.381 92.3315 326.211 92.0475 325.813 92.0475H325.359ZM319.282 130.039H313.944L320.702 87.7884H328.596C330.697 87.7884 332.23 88.9809 331.776 91.65L329.788 104.087C329.391 106.131 328.482 107.04 327.403 107.437C328.085 107.778 329.107 108.63 328.823 110.788L325.983 128.506C325.87 129.131 325.87 129.642 325.983 129.926V130.039H320.759C320.532 129.755 320.475 129.244 320.589 128.619L323.314 111.412C323.485 110.731 323.201 110.617 322.803 110.617H322.406L319.282 130.039Z" fill="white"/>
<path d="M301.134 130.039L307.891 87.7884H315.16C317.602 87.7884 319.647 89.0945 319.022 92.5586L313.911 124.701C313.286 128.392 311.98 130.039 309.311 130.039H301.134ZM312.491 92.3315L307.21 125.382H307.664C308.289 125.382 308.346 125.099 308.516 124.417L313.514 93.4104C313.684 92.729 313.627 92.3315 313.002 92.3315H312.491Z" fill="white"/>
<path d="M281.633 92.0475V105.847H282.031C282.429 105.847 282.656 105.62 282.656 105.109V92.7858C282.656 92.2747 282.599 92.0475 282.088 92.0475H281.633ZM281.633 110.617V130.039H276.068V87.7884H284.7C286.688 87.7884 288.107 89.0377 288.107 91.7068V103.916C288.107 106.131 287.028 107.04 286.177 107.437C287.085 107.835 288.221 108.743 288.221 110.504V128.506C288.221 129.131 288.278 129.528 288.448 129.926V130.039H283.053C282.769 129.755 282.656 129.301 282.656 128.676V111.356C282.656 110.958 282.656 110.617 282.031 110.617H281.633Z" fill="white"/>
<path d="M265.92 87.7884H275.176V92.8426H271.371V105.166H274.665V110.39H271.371V124.928H275.29V130.039H265.92V87.7884Z" fill="white"/>
<path d="M261.23 111.81H258.618V130.039H253.109V87.7884H261.173C263.445 87.7884 265.091 89.0377 265.091 92.0475V107.551C265.091 110.447 263.445 111.81 261.23 111.81ZM258.618 92.1043V107.324H259.015C259.469 107.324 259.697 107.04 259.697 106.415V92.9561C259.697 92.445 259.64 92.1043 259.015 92.1043H258.618Z" fill="white"/>
<path d="M246.388 130.323H245.536C241.277 130.323 239.744 127.881 239.744 124.985V87.7884H245.366V124.36C245.366 124.928 245.536 125.212 245.934 125.212C246.331 125.212 246.558 124.928 246.558 124.36V87.7884H252.18V124.985C252.18 127.881 250.42 130.323 246.388 130.323Z" fill="white"/>
<path d="M233.243 130.323H231.994C228.359 130.323 226.542 128.619 226.542 125.212V112.037H231.994V124.815C231.994 125.439 232.164 125.723 232.562 125.723C232.959 125.723 233.186 125.439 233.186 124.815V113.854C233.186 112.719 233.073 112.321 232.221 111.469L229.211 108.516C227.394 106.756 226.713 104.995 226.713 102.326V92.729C226.713 89.5488 228.189 87.5044 232.221 87.5044H233.47C237.502 87.5044 238.695 89.5488 238.695 92.2747V103.632H233.414V92.5018C233.414 92.0475 233.243 91.8204 232.846 91.8204C232.448 91.8204 232.278 92.0475 232.278 92.5018V102.099C232.278 103.178 232.448 103.519 233.13 104.257L236.083 107.21C238.184 109.198 238.922 110.674 238.922 113.627V124.531C238.922 128.165 237.105 130.323 233.243 130.323Z" fill="white"/>
<path d="M215.528 92.0475V105.847H215.926C216.323 105.847 216.55 105.62 216.55 105.109V92.7858C216.55 92.2747 216.494 92.0475 215.983 92.0475H215.528ZM215.528 110.617V130.039H209.963V87.7884H218.595C220.582 87.7884 222.002 89.0377 222.002 91.7068V103.916C222.002 106.131 220.923 107.04 220.071 107.437C220.98 107.835 222.116 108.743 222.116 110.504V128.506C222.116 129.131 222.173 129.528 222.343 129.926V130.039H216.948C216.664 129.755 216.55 129.301 216.55 128.676V111.356C216.55 110.958 216.55 110.617 215.926 110.617H215.528Z" fill="white"/>
<path d="M200.772 130.039V112.889L197.251 87.7884H202.703L203.668 103.632L204.634 87.7884H209.574L206.281 112.889V130.039H200.772Z" fill="white"/>
<path d="M191.308 125.496C191.705 125.496 191.876 125.212 191.876 124.587V110.333H197.271V124.701C197.271 127.824 195.681 130.323 191.819 130.323H190.91C186.765 130.323 185.118 128.108 185.118 124.247V93.4104C185.118 89.9463 186.651 87.5044 190.91 87.5044H191.819C195.681 87.5044 197.271 89.6624 197.271 92.8993V105.904H191.876V93.0697C191.876 92.5018 191.705 92.2179 191.308 92.2179C190.91 92.2179 190.74 92.5018 190.74 93.0697V124.587C190.74 125.212 190.91 125.496 191.308 125.496Z" fill="white"/>
<path d="M168.425 130.039V87.7884H176.318C178.76 87.7884 180.577 89.0945 180.577 92.5018V125.099C180.577 128.449 178.874 130.039 176.432 130.039H168.425ZM173.876 92.3315V125.382H174.387C174.842 125.382 175.069 125.042 175.069 124.303V93.3537C175.069 92.6722 174.842 92.3315 174.387 92.3315H173.876Z" fill="white"/>
<path d="M158.276 87.7884H167.533V92.8426H163.728V105.166H167.022V110.39H163.728V124.928H167.646V130.039H158.276V87.7884Z" fill="white"/>
<path d="M151.776 130.323H150.527C146.892 130.323 145.075 128.619 145.075 125.212V112.037H150.527V124.815C150.527 125.439 150.697 125.723 151.095 125.723C151.492 125.723 151.719 125.439 151.719 124.815V113.854C151.719 112.719 151.606 112.321 150.754 111.469L147.744 108.516C145.927 106.756 145.245 104.995 145.245 102.326V92.729C145.245 89.5488 146.722 87.5044 150.754 87.5044H152.003C156.035 87.5044 157.228 89.5488 157.228 92.2747V103.632H151.946V92.5018C151.946 92.0475 151.776 91.8204 151.379 91.8204C150.981 91.8204 150.811 92.0475 150.811 92.5018V102.099C150.811 103.178 150.981 103.519 151.663 104.257L154.616 107.21C156.717 109.198 157.455 110.674 157.455 113.627V124.531C157.455 128.165 155.638 130.323 151.776 130.323Z" fill="white"/>
<path d="M132.046 87.7884H137.668L139.826 112.151L139.713 87.7884H144.256V130.039H139.088L136.476 102.894L136.532 130.039H132.046V87.7884Z" fill="white"/>
<path d="M121.84 87.7884H131.097V92.8426H127.292V105.166H130.586V110.39H127.292V124.928H131.211V130.039H121.84V87.7884Z" fill="white"/>
<path d="M108.753 130.039V87.7884H116.647C119.089 87.7884 120.906 89.0945 120.906 92.5018V125.099C120.906 128.449 119.202 130.039 116.76 130.039H108.753ZM114.205 92.3315V125.382H114.716C115.17 125.382 115.397 125.042 115.397 124.303V93.3537C115.397 92.6722 115.17 92.3315 114.716 92.3315H114.205Z" fill="white"/>
<path d="M95.6105 87.7884H101.233L103.391 112.151L103.277 87.7884H107.82V130.039H102.652L100.04 102.894L100.097 130.039H95.6105V87.7884Z" fill="white"/>
<path d="M94.6278 93.9215V124.02C94.6278 128.108 92.4698 130.323 88.7785 130.323H87.9835C84.1218 130.323 82.0775 128.052 82.0775 124.02V93.9215C82.0775 89.8895 83.8947 87.5044 87.9835 87.5044H88.7785C92.8673 87.5044 94.6278 90.0031 94.6278 93.9215ZM89.0057 124.474V93.3536C89.0057 92.729 88.7785 92.3882 88.381 92.3882C87.9835 92.3882 87.7563 92.729 87.7563 93.3536V124.474C87.7563 125.099 87.9835 125.382 88.381 125.382C88.7785 125.382 89.0057 125.099 89.0057 124.474Z" fill="white"/>
<path d="M75.2906 125.496C75.6881 125.496 75.8585 125.212 75.8585 124.587V110.333H81.2534V124.701C81.2534 127.824 79.6633 130.323 75.8017 130.323H74.8931C70.7475 130.323 69.1006 128.108 69.1006 124.247V93.4104C69.1006 89.9463 70.6339 87.5044 74.8931 87.5044H75.8017C79.6633 87.5044 81.2534 89.6624 81.2534 92.8993V105.904H75.8585V93.0697C75.8585 92.5018 75.6881 92.2179 75.2906 92.2179C74.8931 92.2179 74.7227 92.5018 74.7227 93.0697V124.587C74.7227 125.212 74.8931 125.496 75.2906 125.496Z" fill="white"/>
<path d="M61.5088 130.039H56.057L58.215 108.005L56.2274 87.7884H61.8495L62.5877 104.427L63.3828 87.7884H68.6073L66.6765 108.005L68.9481 130.039H63.4396L62.4174 112.207L61.5088 130.039Z" fill="white"/>
<path d="M44.9944 130.039H39.5427V87.7884H44.9944L44.9376 103.746L46.7549 87.7884H52.2066L49.5375 107.267L52.4337 130.039H46.6413L44.9376 113.003L44.9944 130.039Z" fill="white"/>
<path d="M32.7646 130.323H31.9128C27.6536 130.323 26.1203 127.881 26.1203 124.985V87.7884H31.7424V124.36C31.7424 124.928 31.9128 125.212 32.3103 125.212C32.7078 125.212 32.935 124.928 32.935 124.36V87.7884H38.5571V124.985C38.5571 127.881 36.7966 130.323 32.7646 130.323Z" fill="white"/>
<path d="M18.6532 92.0475V105.847H19.0508C19.4483 105.847 19.6754 105.62 19.6754 105.109V92.7858C19.6754 92.2747 19.6187 92.0475 19.1076 92.0475H18.6532ZM18.6532 110.617V130.039H13.088V87.7884H21.7198C23.7074 87.7884 25.1272 89.0377 25.1272 91.7068V103.916C25.1272 106.131 24.0482 107.04 23.1963 107.437C24.105 107.835 25.2407 108.743 25.2407 110.504V128.506C25.2407 129.131 25.2975 129.528 25.4679 129.926V130.039H20.073C19.789 129.755 19.6754 129.301 19.6754 128.676V111.356C19.6754 110.958 19.6754 110.617 19.0508 110.617H18.6532Z" fill="white"/>
<path d="M0 130.039V87.7884H7.89362C10.3355 87.7884 12.1528 89.0945 12.1528 92.5018V125.099C12.1528 128.449 10.4491 130.039 8.0072 130.039H0ZM5.45171 92.3315V125.382H5.96281C6.41712 125.382 6.64427 125.042 6.64427 124.303V93.3537C6.64427 92.6722 6.41712 92.3315 5.96281 92.3315H5.45171Z" fill="white"/>
<path d="M632.769 200.794C633.037 200.794 633.305 200.526 633.395 199.99L637.685 173H642.153L637.863 199.811C637.417 202.582 636.702 205.174 632.859 205.174H632.233C628.747 205.174 627.407 203.118 627.854 199.99L636.88 143.596C637.506 140.11 638.31 138.323 642.153 138.323H642.779C645.371 138.323 647.516 139.574 646.89 143.507L642.958 167.995H638.489L642.422 143.596C642.511 142.97 642.422 142.613 642.064 142.613C641.796 142.613 641.528 142.97 641.438 143.596L632.412 199.99C632.322 200.526 632.412 200.794 632.769 200.794Z" fill="white"/>
<path d="M635.676 138.501L625.041 204.995H620.483L631.118 138.501H635.676Z" fill="white"/>
<path d="M622.02 138.501H626.578L616.658 200.437H619.429L618.714 204.995H611.385L622.02 138.501Z" fill="white"/>
<path d="M608.421 184.796L613.158 150.924L607.17 184.796H608.421ZM605.561 204.995L607.796 189.265H606.366L603.595 204.995H599.484L612.264 138.501H618.342L609.851 204.995H605.561Z" fill="white"/>
<path d="M592.797 204.995L602.718 142.97H600.662L601.377 138.501H610.046L609.331 142.97H607.276L597.355 204.995H592.797Z" fill="white"/>
<path d="M599.547 138.501L588.911 204.995H584.353L594.989 138.501H599.547Z" fill="white"/>
<path d="M572.461 204.995H567.903L578.539 138.501H585.152C587.386 138.501 588.369 139.663 588.012 141.898L583.99 167.011C583.722 168.709 582.739 169.335 582.024 169.603C582.471 169.871 583.543 170.407 583.186 172.642L578.181 203.833C578.092 204.28 578.092 204.637 578.181 204.905V204.995H573.712C573.534 204.816 573.534 204.458 573.623 203.833L578.539 173.178C578.628 172.731 578.449 172.463 578.002 172.463H577.645L572.461 204.995ZM582.471 142.613L578.36 167.905H578.807C579.432 167.905 579.432 167.637 579.522 167.011L583.275 143.596C583.365 142.97 583.275 142.613 582.828 142.613H582.471Z" fill="white"/>
<path d="M569.266 138.502H576.684L575.969 142.97H573.109L569.177 167.369H571.858L571.143 172.016H568.462L563.904 200.437H566.853L566.138 204.995H558.631L569.266 138.502Z" fill="white"/>
<path d="M558.537 174.608H556.124L551.298 204.995H546.74L557.375 138.501H563.81C566.134 138.501 567.117 139.842 566.67 142.434L562.112 170.944C561.665 173.714 560.592 174.608 558.537 174.608ZM561.307 142.613L556.839 170.318H557.107C557.554 170.318 557.822 170.407 557.911 169.782L562.112 143.596C562.38 142.613 562.022 142.613 561.576 142.613H561.307Z" fill="white"/>
<path d="M540.395 205.173H539.769C535.926 205.173 535.032 202.939 535.39 200.526L545.31 138.501H549.868L540.037 199.99C539.948 200.526 540.037 200.794 540.484 200.794C540.752 200.794 540.931 200.526 541.02 199.99L550.851 138.501H555.409L545.489 200.526C545.042 203.386 543.702 205.173 540.395 205.173Z" fill="white"/>
<path d="M528.508 205.174H527.525C524.039 205.174 522.788 203.207 523.414 199.901L527.435 174.787H531.993L527.971 199.99C527.882 200.616 527.972 200.973 528.329 200.973C528.687 200.973 528.865 200.705 528.955 200.079L532.708 176.664C532.887 175.681 532.798 174.698 532.351 173.893L530.385 169.871C529.223 167.458 528.955 165.85 529.401 163.079L532.53 143.507C533.155 140.021 534.049 138.323 537.534 138.323H538.518C541.646 138.323 542.986 139.753 542.539 142.702L538.875 165.492H534.496L538.071 143.328C538.16 142.702 538.071 142.434 537.713 142.434C537.445 142.434 537.356 142.434 537.088 143.507L533.87 163.705C533.602 165.045 533.691 165.492 534.138 166.475L536.104 170.586C537.445 173.178 537.624 174.519 537.177 177.289L533.513 200.079C532.887 203.565 531.636 205.174 528.508 205.174Z" fill="white"/>
<path d="M510.717 204.995H506.159L516.794 138.501H523.408C525.642 138.501 526.625 139.663 526.268 141.898L522.246 167.011C521.978 168.709 520.995 169.335 520.28 169.603C520.727 169.871 521.799 170.407 521.442 172.642L516.437 203.833C516.348 204.28 516.348 204.637 516.437 204.905V204.995H511.968C511.79 204.816 511.79 204.458 511.879 203.833L516.794 173.178C516.884 172.731 516.705 172.463 516.258 172.463H515.901L510.717 204.995ZM520.727 142.613L516.616 167.905H517.062C517.688 167.905 517.688 167.637 517.777 167.011L521.531 143.596C521.621 142.97 521.531 142.613 521.084 142.613H520.727Z" fill="white"/>
<path d="M497.292 204.995L501.761 176.664L505.067 138.501H509.447L505.604 167.726L511.055 138.501H515.256L506.319 176.664L501.85 204.995H497.292Z" fill="white"/>
<path d="M488.708 200.794C488.976 200.794 489.244 200.526 489.334 199.99L493.624 173H498.092L493.802 199.811C493.356 202.582 492.641 205.174 488.798 205.174H488.172C484.686 205.174 483.346 203.118 483.793 199.99L492.819 143.596C493.445 140.11 494.249 138.323 498.092 138.323H498.718C501.31 138.323 503.455 139.574 502.829 143.507L498.897 167.995H494.428L498.36 143.596C498.45 142.97 498.36 142.613 498.003 142.613C497.735 142.613 497.467 142.97 497.377 143.596L488.351 199.99C488.261 200.526 488.351 200.794 488.708 200.794Z" fill="white"/>
<path d="M466.539 204.995L477.174 138.501H483.251C485.664 138.501 487.094 139.663 486.647 142.434L477.442 199.99C476.816 203.297 476.101 204.995 473.331 204.995H466.539ZM481.106 142.613L471.722 200.794H472.08C472.527 200.794 472.616 200.794 472.884 199.632L481.911 143.685C482 143.059 482.089 142.613 481.464 142.613H481.106Z" fill="white"/>
<path d="M467.901 138.501H475.319L474.604 142.97H471.744L467.811 167.369H470.493L469.778 172.016H467.096L462.538 200.437H465.488L464.773 204.995H457.266L467.901 138.501Z" fill="white"/>
<path d="M451.099 205.174H450.116C446.631 205.174 445.38 203.207 446.005 199.901L450.027 174.787H454.585L450.563 199.99C450.474 200.616 450.563 200.973 450.921 200.973C451.278 200.973 451.457 200.705 451.546 200.079L455.3 176.664C455.479 175.681 455.389 174.698 454.942 173.893L452.976 169.871C451.814 167.458 451.546 165.85 451.993 163.079L455.121 143.507C455.747 140.021 456.641 138.323 460.126 138.323H461.109C464.237 138.323 465.578 139.753 465.131 142.702L461.467 165.492H457.087L460.662 143.328C460.752 142.702 460.662 142.434 460.305 142.434C460.037 142.434 459.947 142.434 459.679 143.507L456.462 163.705C456.194 165.045 456.283 165.492 456.73 166.475L458.696 170.586C460.037 173.178 460.215 174.519 459.769 177.289L456.104 200.079C455.479 203.565 454.227 205.174 451.099 205.174Z" fill="white"/>
<path d="M443.684 138.501H448.689L443.773 180.328L450.297 138.501H453.872L443.237 204.995H438.679L444.041 157.985L436.623 204.995H433.048L443.684 138.501Z" fill="white"/>
<path d="M434.411 138.501H441.829L441.114 142.97H438.254L434.322 167.369H437.003L436.288 172.016H433.607L429.049 200.437H431.998L431.283 204.995H423.776L434.411 138.501Z" fill="white"/>
<path d="M411.71 204.995L422.346 138.501H428.423C430.836 138.501 432.266 139.663 431.819 142.434L422.614 199.99C421.988 203.297 421.273 204.995 418.503 204.995H411.71ZM426.278 142.613L416.894 200.794H417.252C417.698 200.794 417.788 200.794 418.056 199.632L427.083 143.685C427.172 143.059 427.261 142.613 426.636 142.613H426.278Z" fill="white"/>
<path d="M410.193 138.501H415.198L410.283 180.328L416.807 138.501H420.382L409.746 204.995H405.188L410.551 157.985L403.133 204.995H399.558L410.193 138.501Z" fill="white"/>
<path d="M407.338 144.132L398.4 199.99C397.775 203.297 396.524 205.174 393.306 205.174H392.77C388.927 205.174 387.586 202.761 388.212 199.454L397.06 144.132C397.685 140.647 398.579 138.323 402.243 138.323H402.78C406.623 138.323 407.963 140.647 407.338 144.132ZM393.753 199.901L402.78 143.507C402.869 142.881 402.69 142.613 402.333 142.613C402.065 142.613 401.886 142.881 401.796 143.507L392.77 199.99C392.68 200.526 392.77 200.794 393.217 200.794C393.485 200.794 393.664 200.526 393.753 199.901Z" fill="white"/>
<path d="M381.06 200.794C381.328 200.794 381.596 200.526 381.685 199.99L385.975 173H390.444L386.154 199.811C385.707 202.582 384.992 205.174 381.149 205.174H380.524C377.038 205.174 375.697 203.118 376.144 199.99L385.171 143.596C385.797 140.11 386.601 138.323 390.444 138.323H391.07C393.661 138.323 395.806 139.574 395.181 143.507L391.248 167.995H386.78L390.712 143.596C390.801 142.97 390.712 142.613 390.355 142.613C390.086 142.613 389.818 142.97 389.729 143.596L380.702 199.99C380.613 200.526 380.702 200.794 381.06 200.794Z" fill="white"/>
<path d="M367.737 204.995H363.179L370.239 170.676L373.993 138.501H378.73L374.529 167.816L379.981 138.501H384.271L377.568 170.676L373.814 204.995H369.256L373.189 174.251L367.737 204.995Z" fill="white"/>
<path d="M355.846 204.995H351.288L358.349 170.676L362.103 138.501H366.839L362.639 167.816L368.09 138.501H372.38L365.677 170.676L361.924 204.995H357.366L361.298 174.251L355.846 204.995Z" fill="white"/>
<path d="M339.405 204.995H334.847L345.482 138.501H350.04L344.946 169.424L351.381 138.501H355.849L348.789 170.229L345.75 204.995H340.835L344.499 172.463V171.927L339.405 204.995Z" fill="white"/>
<path d="M328.501 205.173H327.876C324.033 205.173 323.139 202.939 323.497 200.526L333.417 138.501H337.975L328.144 199.99C328.055 200.526 328.144 200.794 328.591 200.794C328.859 200.794 329.038 200.526 329.127 199.99L338.958 138.501H343.516L333.596 200.526C333.149 203.386 331.808 205.173 328.501 205.173Z" fill="white"/>
<path d="M315.274 204.995H310.716L321.351 138.501H327.965C330.199 138.501 331.182 139.663 330.825 141.898L326.803 167.011C326.535 168.709 325.552 169.335 324.837 169.603C325.283 169.871 326.356 170.407 325.998 172.642L320.994 203.833C320.904 204.28 320.904 204.637 320.994 204.905V204.995H316.525C316.346 204.816 316.346 204.458 316.436 203.833L321.351 173.178C321.44 172.731 321.262 172.463 320.815 172.463H320.457L315.274 204.995ZM325.283 142.613L321.172 167.905H321.619C322.245 167.905 322.245 167.637 322.334 167.011L326.088 143.596C326.177 142.97 326.088 142.613 325.641 142.613H325.283Z" fill="white"/>
<path d="M298.651 204.995L309.286 138.501H315.364C317.777 138.501 319.207 139.663 318.76 142.434L309.554 199.99C308.929 203.297 308.214 204.995 305.443 204.995H298.651ZM313.219 142.613L303.835 200.794H304.192C304.639 200.794 304.728 200.794 304.996 199.632L314.023 143.685C314.112 143.059 314.202 142.613 313.576 142.613H313.219Z" fill="white"/>
<path d="M281.581 172.463V204.995H276.845V138.501H284.263C286.139 138.501 287.212 139.842 287.212 141.987V166.654C287.212 168.709 286.229 169.335 285.514 169.603C286.229 169.871 287.301 170.765 287.301 172.463V203.743C287.301 204.19 287.391 204.548 287.48 204.905V204.995H282.833C282.654 204.816 282.565 204.458 282.565 203.833V173.089C282.565 172.642 282.386 172.463 281.939 172.463H281.581ZM281.581 142.613V167.905H281.939C282.386 167.905 282.565 167.637 282.565 167.19V143.328C282.565 142.881 282.386 142.613 282.028 142.613H281.581Z" fill="white"/>
<path d="M267.311 138.501H274.997V142.97H272.048V167.369H274.818V172.016H272.048V200.437H275.087V204.995H267.311V138.501Z" fill="white"/>
<path d="M262.043 174.608H259.808V204.995H255.072V138.501H261.953C264.009 138.501 265.349 139.574 265.349 142.166V170.944C265.349 173.357 263.919 174.608 262.043 174.608ZM259.808 142.613V170.318H260.166C260.613 170.318 260.791 170.05 260.791 169.514V143.417C260.791 142.881 260.613 142.613 260.166 142.613H259.808Z" fill="white"/>
<path d="M248.199 205.173H247.573C243.909 205.173 242.658 203.118 242.658 200.615V138.501H247.394V200.079C247.394 200.526 247.573 200.794 247.841 200.794C248.199 200.794 248.378 200.526 248.378 200.079V138.501H253.114V200.615C253.114 203.118 251.684 205.173 248.199 205.173Z" fill="white"/>
<path d="M235.963 205.174H234.98C231.852 205.174 230.243 203.565 230.243 200.437V174.787H234.98V200.169C234.98 200.705 235.158 200.973 235.426 200.973C235.784 200.973 235.963 200.705 235.963 200.169V176.664C235.963 175.234 235.784 174.876 235.158 173.893L232.12 169.871C230.69 167.816 230.332 166.207 230.332 163.437V143.328C230.332 140.11 231.494 138.323 235.069 138.323H236.052C239.627 138.323 240.61 140.11 240.61 142.97V165.492H236.052V143.06C236.052 142.613 235.873 142.434 235.605 142.434C235.248 142.434 235.069 142.613 235.069 143.06V163.794C235.069 165.224 235.248 165.492 235.873 166.475L238.912 170.586C240.61 172.731 240.699 174.161 240.699 177.021V200.079C240.699 203.476 239.091 205.174 235.963 205.174Z" fill="white"/>
<path d="M218.093 172.463V204.995H213.356V138.501H220.774C222.651 138.501 223.723 139.842 223.723 141.987V166.654C223.723 168.709 222.74 169.335 222.025 169.603C222.74 169.871 223.813 170.765 223.813 172.463V203.743C223.813 204.19 223.902 204.548 223.991 204.905V204.995H219.344C219.165 204.816 219.076 204.458 219.076 203.833V173.089C219.076 172.642 218.897 172.463 218.45 172.463H218.093ZM218.093 142.613V167.905H218.45C218.897 167.905 219.076 167.637 219.076 167.19V143.328C219.076 142.881 218.897 142.613 218.54 142.613H218.093Z" fill="white"/>
<path d="M204.23 204.995V176.664L201.28 138.501H206.017L206.732 167.726L207.626 138.501H211.826L208.966 176.664V204.995H204.23Z" fill="white"/>
<path d="M194.848 200.794C195.116 200.794 195.295 200.526 195.295 199.99V173H199.942V199.99C199.942 203.118 198.512 205.174 195.295 205.174H194.58C190.916 205.174 189.575 203.297 189.575 199.99V143.328C189.575 140.379 190.916 138.323 194.58 138.323H195.295C198.78 138.323 199.942 140.379 199.942 143.328V167.995H195.295V143.417C195.295 142.881 195.116 142.613 194.848 142.613C194.491 142.613 194.312 142.881 194.312 143.417V199.99C194.312 200.526 194.491 200.794 194.848 200.794Z" fill="white"/>
<path d="M172.688 204.995V138.501H179.391C181.626 138.501 183.145 139.753 183.145 142.613V200.705C183.145 203.297 181.983 204.995 179.57 204.995H172.688ZM177.425 142.613V200.794H177.783C178.229 200.794 178.408 200.437 178.408 199.811V143.506C178.408 142.881 178.229 142.613 177.783 142.613H177.425Z" fill="white"/>
<path d="M163.153 138.501H170.839V142.97H167.89V167.369H170.661V172.016H167.89V200.437H170.929V204.995H163.153V138.501Z" fill="white"/>
<path d="M156.459 205.174H155.476C152.348 205.174 150.739 203.565 150.739 200.437V174.787H155.476V200.169C155.476 200.705 155.654 200.973 155.923 200.973C156.28 200.973 156.459 200.705 156.459 200.169V176.664C156.459 175.234 156.28 174.876 155.654 173.893L152.616 169.871C151.186 167.816 150.828 166.207 150.828 163.437V143.328C150.828 140.11 151.99 138.323 155.565 138.323H156.548C160.123 138.323 161.106 140.11 161.106 142.97V165.492H156.548V143.06C156.548 142.613 156.369 142.434 156.101 142.434C155.744 142.434 155.565 142.613 155.565 143.06V163.794C155.565 165.224 155.744 165.492 156.369 166.475L159.408 170.586C161.106 172.731 161.196 174.161 161.196 177.021V200.079C161.196 203.476 159.587 205.174 156.459 205.174Z" fill="white"/>
<path d="M138.238 138.501H143.421L145.209 180.328L145.03 138.501H148.784V204.995H144.047L141.813 157.985L141.902 204.995H138.238V138.501Z" fill="white"/>
<path d="M128.703 138.501H136.389V142.97H133.44V167.369H136.211V172.016H133.44V200.437H136.479V204.995H128.703V138.501Z" fill="white"/>
<path d="M116.289 204.995V138.501H122.991C125.226 138.501 126.745 139.753 126.745 142.613V200.705C126.745 203.297 125.583 204.995 123.17 204.995H116.289ZM121.025 142.613V200.794H121.383C121.83 200.794 122.008 200.437 122.008 199.811V143.506C122.008 142.881 121.83 142.613 121.383 142.613H121.025Z" fill="white"/>
<path d="M103.787 138.501H108.971L110.759 180.328L110.58 138.501H114.333V204.995H109.597L107.362 157.985L107.452 204.995H103.787V138.501Z" fill="white"/>
<path d="M101.834 143.864V199.633C101.834 203.118 100.315 205.174 96.8293 205.174H96.293C92.8075 205.174 91.1988 203.118 91.1988 199.633V143.864C91.1988 140.379 92.8075 138.323 96.293 138.323H96.8293C100.315 138.323 101.834 140.379 101.834 143.864ZM97.008 199.99V143.417C97.008 142.881 96.8293 142.613 96.5611 142.613C96.2037 142.613 96.0249 142.881 96.0249 143.417V199.99C96.0249 200.526 96.2037 200.794 96.5611 200.794C96.8293 200.794 97.008 200.526 97.008 199.99Z" fill="white"/>
<path d="M84.144 200.794C84.4122 200.794 84.5909 200.526 84.5909 199.99V173H89.2383V199.99C89.2383 203.118 87.8083 205.174 84.5909 205.174H83.8759C80.2116 205.174 78.871 203.297 78.871 199.99V143.328C78.871 140.379 80.2116 138.323 83.8759 138.323H84.5909C88.0764 138.323 89.2383 140.379 89.2383 143.328V167.995H84.5909V143.417C84.5909 142.881 84.4122 142.613 84.144 142.613C83.7865 142.613 83.6078 142.881 83.6078 143.417V199.99C83.6078 200.526 83.7865 200.794 84.144 200.794Z" fill="white"/>
<path d="M71.0983 204.995H66.3616L68.0597 170.676L66.5403 138.501H71.4558L71.9921 167.816L72.707 138.501H77.1757L75.567 170.676L77.3544 204.995H72.6177L71.7239 174.251L71.0983 204.995Z" fill="white"/>
<path d="M58.8583 204.995H54.1215L55.8196 170.676L54.3002 138.501H59.2157L59.752 167.816L60.467 138.501H64.9356L63.3269 170.676L65.1143 204.995H60.3776L59.4839 174.251L58.8583 204.995Z" fill="white"/>
<path d="M41.9804 204.995H37.2437V138.501H41.9804L41.8017 169.067L43.321 138.501H47.9684L45.8234 169.871L48.5046 204.995H43.4104L41.8017 172.552L41.9804 204.995Z" fill="white"/>
<path d="M30.3699 205.173H29.7443C26.08 205.173 24.8288 203.118 24.8288 200.615V138.501H29.5655V200.079C29.5655 200.526 29.7443 200.794 30.0124 200.794C30.3699 200.794 30.5486 200.526 30.5486 200.079V138.501H35.2854V200.615C35.2854 203.118 33.8554 205.173 30.3699 205.173Z" fill="white"/>
<path d="M17.1516 172.463V204.995H12.4149V138.501H19.8328C21.7096 138.501 22.7821 139.842 22.7821 141.987V166.654C22.7821 168.709 21.799 169.335 21.084 169.603C21.799 169.871 22.8715 170.765 22.8715 172.463V203.743C22.8715 204.19 22.9609 204.548 23.0502 204.905V204.995H18.4029C18.2241 204.816 18.1347 204.458 18.1347 203.833V173.089C18.1347 172.642 17.956 172.463 17.5091 172.463H17.1516ZM17.1516 142.613V167.905H17.5091C17.956 167.905 18.1347 167.637 18.1347 167.19V143.328C18.1347 142.881 17.956 142.613 17.5985 142.613H17.1516Z" fill="white"/>
<path d="M0 204.995V138.501H6.70295C8.93726 138.501 10.4566 139.753 10.4566 142.613V200.705C10.4566 203.297 9.29475 204.995 6.88169 204.995H0ZM4.73675 142.613V200.794H5.09424C5.5411 200.794 5.71985 200.437 5.71985 199.811V143.506C5.71985 142.881 5.5411 142.613 5.09424 142.613H4.73675Z" fill="white"/>
</svg>
