<svg width="647" height="180" viewBox="0 0 647 180" fill="none" xmlns="http://www.w3.org/2000/svg">
<path d="M592.496 6.63273V10.1424H602.123C603.926 10.1424 604.57 9.40179 604.57 8.40364V8.37144C604.57 7.37329 603.926 6.63273 602.123 6.63273H592.496ZM592.496 16.4532V24.374H581.645V0.418457H606.019C612.04 0.418457 615.743 2.12497 615.743 6.50394V6.82592C615.743 10.4321 612.523 11.7845 610.527 12.2996C613.908 12.9758 615.84 15.0687 615.84 18.1597V21.7659C615.84 23.1827 616.033 23.7622 616.29 24.1808V24.374H605.15C604.989 24.213 604.924 23.891 604.924 23.4081V20.5424C604.924 17.9665 603.701 16.4532 600.191 16.4532H592.496Z" fill="white"/>
<path d="M551.522 0.418457H579.341V6.76153H562.212V9.112H579.084V15.3585H562.212V17.9665H579.502V24.374H551.522V0.418457Z" fill="white"/>
<path d="M538.33 17.4192H527.093V24.374H516.242V0.418457H538.33C547.378 0.418457 549.922 3.99247 549.922 8.46804V9.1764C549.922 13.5876 547.314 17.4192 538.33 17.4192ZM527.093 6.98691V10.7219H536.173C538.073 10.7219 538.717 9.91696 538.717 8.88661V8.82222C538.717 7.75967 538.073 6.98691 536.173 6.98691H527.093Z" fill="white"/>
<path d="M478.661 11.6879V0.418457H489.576V10.6575C489.576 13.4266 490.767 16.582 496.305 16.582H496.338C501.779 16.582 503.067 13.4266 503.067 10.6575V0.418457H513.982V11.6879C513.982 16.3566 511.954 24.7604 497.078 24.7604H495.597C480.528 24.7604 478.661 16.3888 478.661 11.6879Z" fill="white"/>
<path d="M461.731 24.8249H458.092C444.151 24.8249 442.766 19.5122 442.766 16.4211V16.1314H455.195C455.291 17.2583 455.774 19.0614 459.992 19.0614H460.121C463.985 19.0614 464.758 18.1277 464.758 17.1295V17.0651C464.758 16.067 464.307 15.2942 459.767 15.1332L455.001 15.0044C445.374 14.7468 443.152 11.3338 443.152 7.56661V7.27682C443.152 3.05884 446.34 0 457.706 0H461.248C473.676 0 476.542 3.57402 476.542 7.53441V7.7598H464.307C464.21 6.89044 463.759 5.53811 459.702 5.53811H459.541C455.806 5.53811 455.291 6.18208 455.291 7.05143V7.08363C455.291 8.01738 456.128 8.62915 460.185 8.72575L464.758 8.82234C473.998 9.07993 477.411 11.2372 477.411 16.1314V16.5821C477.411 20.7357 474.868 24.8249 461.731 24.8249Z" fill="white"/>
<path d="M403.988 0.418457H431.808V6.76153H414.678V9.112H431.55V15.3585H414.678V17.9665H431.969V24.374H403.988V0.418457Z" fill="white"/>
<path d="M366.319 24.374V0.418457H384.543C398.292 0.418457 402.188 5.79558 402.188 11.7523V12.7504C402.188 18.4173 399.032 24.374 384.543 24.374H366.319ZM377.17 7.34109V17.4514H382.901C390.274 17.4514 390.918 14.1027 390.918 12.3962V12.203C390.918 10.4965 390.242 7.34109 382.901 7.34109H377.17Z" fill="white"/>
<path d="M363.805 0.418457V24.374H352.986V0.418457H363.805Z" fill="white"/>
<path d="M320.973 24.374H306.837L298.015 0.418457H310.347L315.016 15.3585L319.234 0.418457H331.952L336.17 15.3907L340.614 0.418457H352.108L343.189 24.374H329.376L325.158 10.2389L320.973 24.374Z" fill="white"/>
<path d="M266.84 24.374V7.92066H256.504V0.418457H288.059V7.92066H277.723V24.374H266.84Z" fill="white"/>
<path d="M231.626 24.374H218.714L228.728 11.8811L219.197 0.418457H232.624L238.033 7.50209L243.475 0.418457H256L246.888 11.8489L256.773 24.374H243.604L237.583 16.8718L231.626 24.374Z" fill="white"/>
<path d="M190.14 0.418457H217.959V6.76153H200.829V9.112H217.701V15.3585H200.829V17.9665H218.12V24.374H190.14V0.418457Z" fill="white"/>
<path d="M166.944 24.374V7.92066H156.608V0.418457H188.162V7.92066H177.827V24.374H166.944Z" fill="white"/>
<path d="M121.973 24.374H111.122V0.418457H121.973V9.33739L133.242 0.418457H146.572L132.47 11.2371L146.798 24.374H132.631L121.973 14.2637V24.374Z" fill="white"/>
<path d="M73.5405 11.6879V0.418457H84.4558V10.6575C84.4558 13.4266 85.6471 16.582 91.1852 16.582H91.2174C96.6589 16.582 97.9469 13.4266 97.9469 10.6575V0.418457H108.862V11.6879C108.862 16.3566 106.834 24.7604 91.958 24.7604H90.4768C75.408 24.7604 73.5405 16.3888 73.5405 11.6879Z" fill="white"/>
<path d="M48.5203 6.63273V10.1424H58.1476C59.9507 10.1424 60.5946 9.40179 60.5946 8.40364V8.37144C60.5946 7.37329 59.9507 6.63273 58.1476 6.63273H48.5203ZM48.5203 16.4532V24.374H37.6694V0.418457H62.0436C68.0647 0.418457 71.7675 2.12497 71.7675 6.50394V6.82592C71.7675 10.4321 68.5476 11.7845 66.5513 12.2996C69.9322 12.9758 71.8641 15.0687 71.8641 18.1597V21.7659C71.8641 23.1827 72.0572 23.7622 72.3148 24.1808V24.374H61.1742C61.0132 24.213 60.9488 23.891 60.9488 23.4081V20.5424C60.9488 17.9665 59.7253 16.4532 56.2157 16.4532H48.5203Z" fill="white"/>
<path d="M0 24.374V0.418457H18.2243C31.9729 0.418457 35.8689 5.79558 35.8689 11.7523V12.7504C35.8689 18.4173 32.7135 24.374 18.2243 24.374H0ZM10.8508 7.34109V17.4514H16.5821C23.9556 17.4514 24.5995 14.1027 24.5995 12.3962V12.203C24.5995 10.4965 23.9234 7.34109 16.5821 7.34109H10.8508Z" fill="white"/>
<path d="M566.489 66.9225L567.973 57.6456H573.804L572.32 67.0815C571.631 71.1103 570.094 75.4042 564.687 75.4042H563.308C557.53 75.4042 556.152 71.2164 556.841 66.9755L560.605 43.0676C561.188 39.0388 562.937 35.063 568.185 35.063H569.564C575.978 35.063 576.614 39.5159 576.031 43.4917L574.971 50.2771H569.139L570.253 43.3857C570.518 41.6363 569.988 40.7882 568.609 40.7882C567.178 40.7882 566.754 41.6893 566.489 43.3857L562.778 66.9755C562.566 68.4598 562.884 69.573 564.315 69.573C565.747 69.573 566.224 68.5658 566.489 66.9225Z" fill="white"/>
<path d="M559.531 35.4341L553.276 74.8741H547.445L553.7 35.4341H559.531Z" fill="white"/>
<path d="M538.998 35.4341H544.829L539.528 68.7779H546.632L545.677 74.8741H532.743L538.998 35.4341Z" fill="white"/>
<path d="M526.038 74.8741L526.409 67.4526H522.168L520.26 74.8741H514.906L525.879 35.4341H532.823L531.604 74.8741H526.038ZM523.653 61.5684H526.727L527.522 46.6724L523.653 61.5684Z" fill="white"/>
<path d="M507.244 35.4341H522.829L521.928 41.2123H517.104L511.75 74.8741H505.919L511.273 41.2123H506.343L507.244 35.4341Z" fill="white"/>
<path d="M505.641 35.4341L499.385 74.8741H493.554L499.809 35.4341H505.641Z" fill="white"/>
<path d="M465.806 74.8741L472.061 35.4341H479.271L478.741 56.2673L484.837 35.4341H492.1L485.844 74.8741H480.384L484.466 49.3759L476.938 74.8741H474.606L475.03 49.3759L470.948 74.8741H465.806Z" fill="white"/>
<path d="M449.168 66.1273L454.045 35.4341H459.982L454.999 66.7635C454.734 68.4598 455.158 69.52 456.589 69.52C457.915 69.52 458.498 68.4598 458.763 66.7635L463.746 35.4341H469.683L464.806 66.1273C463.905 71.8525 461.731 75.4042 456.642 75.4042H455.847C450.705 75.4042 448.267 72.0115 449.168 66.1273Z" fill="white"/>
<path d="M451.646 35.4341L445.391 74.8741H439.56L445.815 35.4341H451.646Z" fill="white"/>
<path d="M421.751 74.8741L428.007 35.4341H436.17C441.259 35.4341 443.009 38.2967 442.214 43.1737L438.45 67.0285C437.761 71.8525 436.064 74.8741 431.293 74.8741H421.751ZM432.99 40.7882L428.484 69.1489H429.915C431.664 69.1489 432.195 68.1948 432.566 66.0743L436.064 43.8628C436.435 41.5833 435.905 40.7882 434.474 40.7882H432.99Z" fill="white"/>
<path d="M412.735 35.4341H425.934L425.033 41.1592H417.665L416.021 51.4964H421.8L420.845 57.4866H415.067L413.265 68.8839H420.951L419.997 74.8741H406.479L412.735 35.4341Z" fill="white"/>
<path d="M384.012 74.8741L390.267 35.4341H397.477L396.947 56.2673L403.043 35.4341H410.306L404.05 74.8741H398.59L402.672 49.3759L395.144 74.8741H392.812L393.236 49.3759L389.154 74.8741H384.012Z" fill="white"/>
<path d="M369.771 57.2745L366.962 74.8741H361.13L367.386 35.4341H376.185C380.373 35.4341 382.335 37.3425 381.699 41.5303L380.585 48.5808C380.108 51.6024 378.73 52.9807 377.193 53.5638C378.094 54.1469 379.472 55.1541 379.048 58.1757L376.928 71.5344C376.663 73.2308 376.822 74.0259 376.981 74.6091L376.928 74.8741H371.149C370.937 74.238 370.831 73.2308 371.096 71.5344L372.952 59.8721C373.323 57.8046 373.005 57.2745 371.255 57.2745H369.771ZM372.369 40.7882L370.619 51.6554H372.263C373.906 51.6554 374.383 50.7012 374.648 49.0048L375.549 43.3327C375.814 41.6363 375.496 40.7882 373.8 40.7882H372.369Z" fill="white"/>
<path d="M366.385 35.4341L357.639 58.6528L355.041 74.8741H349.21L351.861 58.2817L350.164 35.4341H355.677L355.995 50.2241L360.872 35.4341H366.385Z" fill="white"/>
<path d="M339.433 66.9225L340.917 57.6456H346.748L345.264 67.0815C344.575 71.1103 343.038 75.4042 337.63 75.4042H336.252C330.474 75.4042 329.096 71.2164 329.785 66.9755L333.549 43.0676C334.132 39.0388 335.881 35.063 341.129 35.063H342.507C348.922 35.063 349.558 39.5159 348.975 43.4917L347.915 50.2771H342.083L343.197 43.3857C343.462 41.6363 342.932 40.7882 341.553 40.7882C340.122 40.7882 339.698 41.6893 339.433 43.3857L335.722 66.9755C335.51 68.4598 335.828 69.573 337.259 69.573C338.691 69.573 339.168 68.5658 339.433 66.9225Z" fill="white"/>
<path d="M315.543 50.5422L322.275 35.4341H328.159L319.837 53.9349L322.487 74.8741H316.497L314.377 57.9107L311.673 74.8741H305.842L312.097 35.4341H317.928L315.543 50.5422Z" fill="white"/>
<path d="M289.203 66.1273L294.081 35.4341H300.018L295.035 66.7635C294.77 68.4598 295.194 69.52 296.625 69.52C297.95 69.52 298.533 68.4598 298.798 66.7635L303.781 35.4341H309.719L304.842 66.1273C303.94 71.8525 301.767 75.4042 296.678 75.4042H295.883C290.741 75.4042 288.302 72.0115 289.203 66.1273Z" fill="white"/>
<path d="M278.918 57.2745L276.109 74.8741H270.277L276.533 35.4341H285.332C289.52 35.4341 291.482 37.3425 290.846 41.5303L289.732 48.5808C289.255 51.6024 287.877 52.9807 286.34 53.5638C287.241 54.1469 288.619 55.1541 288.195 58.1757L286.075 71.5344C285.809 73.2308 285.969 74.0259 286.128 74.6091L286.075 74.8741H280.296C280.084 74.238 279.978 73.2308 280.243 71.5344L282.099 59.8721C282.47 57.8046 282.152 57.2745 280.402 57.2745H278.918ZM281.516 40.7882L279.766 51.6554H281.41C283.053 51.6554 283.53 50.7012 283.795 49.0048L284.696 43.3327C284.961 41.6363 284.643 40.7882 282.947 40.7882H281.516Z" fill="white"/>
<path d="M252.469 74.8741L258.724 35.4341H266.888C271.977 35.4341 273.726 38.2967 272.931 43.1737L269.167 67.0285C268.478 71.8525 266.782 74.8741 262.011 74.8741H252.469ZM263.707 40.7882L259.201 69.1489H260.632C262.382 69.1489 262.912 68.1948 263.283 66.0743L266.782 43.8628C267.153 41.5833 266.623 40.7882 265.191 40.7882H263.707Z" fill="white"/>
<path d="M220.943 74.8741V35.4341H228.63L231.493 56.2673L234.408 35.4341H241.565V74.8741H235.945V49.3759L232.341 74.8741H229.955L226.297 49.3759V74.8741H220.943Z" fill="white"/>
<path d="M202.563 66.2864V35.4341H208.66V66.6574C208.66 68.3538 209.243 69.467 210.568 69.467C211.999 69.467 212.53 68.4068 212.53 66.6574V35.4341H218.626V66.2864C218.626 71.8525 216.399 75.3512 211.098 75.3512H210.038C204.737 75.3512 202.563 72.0115 202.563 66.2864Z" fill="white"/>
<path d="M200.221 35.4341V74.8741H194.231V35.4341H200.221Z" fill="white"/>
<path d="M176.009 74.8741V35.4341H185.18C190.322 35.4341 191.912 38.3497 191.912 43.0146V67.0285C191.912 71.9055 190.11 74.8741 185.18 74.8741H176.009ZM181.999 40.7882V69.1489H183.43C185.286 69.1489 185.763 68.1948 185.763 66.0743V43.8628C185.763 41.5833 185.18 40.7882 183.695 40.7882H181.999Z" fill="white"/>
<path d="M160.323 35.4341H173.947V41.1592H166.313V51.4964H172.303V57.4866H166.313V68.8839H174.265V74.8741H160.323V35.4341Z" fill="white"/>
<path d="M137.286 74.8741V35.4341H144.972L147.835 56.2673L150.75 35.4341H157.907V74.8741H152.288V49.3759L148.683 74.8741H146.297L142.64 49.3759V74.8741H137.286Z" fill="white"/>
<path d="M119.929 40.7882V51.6554H121.519C123.162 51.6554 123.692 50.5952 123.692 48.8458V43.3327C123.692 41.6363 123.374 40.7882 121.519 40.7882H119.929ZM119.929 57.2745V74.8741H113.938V35.4341H123.639C127.668 35.4341 129.63 37.0774 129.63 41.5303V48.5277C129.63 51.8144 128.092 53.1397 127.032 53.5638C128.357 54.1469 129.63 55.1541 129.63 57.8577V71.6935C129.63 73.3368 129.948 74.0259 130.213 74.6091V74.8741H124.276C124.011 74.45 123.692 73.7609 123.692 71.6405V59.766C123.692 58.0167 123.374 57.2745 121.466 57.2745H119.929Z" fill="white"/>
<path d="M112.949 35.4341L107.701 58.4938V74.8741H101.711V58.4408L96.3037 35.4341H102.135L104.891 50.1711L107.542 35.4341H112.949Z" fill="white"/>
<path d="M89.7336 66.8695V57.6986H95.6178V66.8165C95.6178 71.0573 94.1865 75.3512 88.4613 75.3512H87.1361C81.0398 75.3512 79.7676 71.0043 79.7676 67.0285V42.9616C79.7676 38.9328 81.5169 35.063 86.924 35.063H88.3023C94.8757 35.063 95.6178 39.4099 95.6178 43.2797V50.3301H89.7336V43.3857C89.7336 41.6893 89.2035 40.7882 87.7192 40.7882C86.2349 40.7882 85.8638 41.6363 85.8638 43.3857V66.8165C85.8638 68.6188 86.4999 69.52 87.7722 69.52C89.2035 69.52 89.7336 68.5128 89.7336 66.8695Z" fill="white"/>
<path d="M62.414 57.7516V74.8741H56.4238V35.4341H62.414V51.2313L67.132 35.4341H72.9632L67.3971 53.7758L73.5463 74.8741H67.3971L62.414 57.7516Z" fill="white"/>
<path d="M38.0435 66.2864V35.4341H44.1397V66.6574C44.1397 68.3538 44.7228 69.467 46.0481 69.467C47.4794 69.467 48.0095 68.4068 48.0095 66.6574V35.4341H54.1057V66.2864C54.1057 71.8525 51.8793 75.3512 46.5782 75.3512H45.518C40.2169 75.3512 38.0435 72.0115 38.0435 66.2864Z" fill="white"/>
<path d="M26.1763 40.7882V51.6554H27.7666C29.4099 51.6554 29.94 50.5952 29.94 48.8458V43.3327C29.94 41.6363 29.622 40.7882 27.7666 40.7882H26.1763ZM26.1763 57.2745V74.8741H20.186V35.4341H29.887C33.9158 35.4341 35.8772 37.0774 35.8772 41.5303V48.5277C35.8772 51.8144 34.3399 53.1397 33.2797 53.5638C34.605 54.1469 35.8772 55.1541 35.8772 57.8577V71.6935C35.8772 73.3368 36.1953 74.0259 36.4604 74.6091V74.8741H30.5231C30.2581 74.45 29.94 73.7609 29.94 71.6405V59.766C29.94 58.0167 29.622 57.2745 27.7136 57.2745H26.1763Z" fill="white"/>
<path d="M1.96338 74.8741V35.4341H11.1342C16.2763 35.4341 17.8666 38.3497 17.8666 43.0146V67.0285C17.8666 71.9055 16.0643 74.8741 11.1342 74.8741H1.96338ZM7.9536 40.7882V69.1489H9.38489C11.2403 69.1489 11.7174 68.1948 11.7174 66.0743V43.8628C11.7174 41.5833 11.1342 40.7882 9.64994 40.7882H7.9536Z" fill="white"/>
<path d="M635.245 125.337C635.642 125.337 635.756 125.167 635.926 124.43L638.194 110.196H643.412L641.143 124.487C640.69 127.379 639.499 130.158 635.416 130.158H634.565C630.312 130.158 628.78 127.719 629.404 124.033L634.338 93.2958C634.962 89.4962 636.38 87.3979 640.463 87.3979H641.314C644.886 87.3979 646.814 89.2694 646.191 92.8989L644.149 105.715H638.875L640.917 93.0123C640.973 92.6153 641.087 92.1049 640.463 92.1049C640.066 92.1049 640.009 92.275 639.839 93.0123L634.792 124.487C634.735 124.884 634.622 125.337 635.245 125.337Z" fill="white"/>
<path d="M634.318 87.6814L627.57 129.874H622.239L628.987 87.6814H634.318Z" fill="white"/>
<path d="M619.517 87.6814H624.848L618.95 124.713H622.296L621.502 129.874H612.769L619.517 87.6814Z" fill="white"/>
<path d="M608.862 116.49L610.96 98.7399L607.501 116.49H608.862ZM607.274 129.874L608.295 121.311H606.537L604.892 129.874H600.185L609.486 87.6814H616.348L612.378 129.874H607.274Z" fill="white"/>
<path d="M593.549 129.874L599.447 92.7286H597.065L597.916 87.6814H608.01L607.216 92.7286H604.778L598.88 129.874H593.549Z" fill="white"/>
<path d="M597.102 87.6814L590.353 129.874H585.022L591.771 87.6814H597.102Z" fill="white"/>
<path d="M580.306 91.9347L578.094 105.715H578.604C579.001 105.715 579.115 105.659 579.285 104.921L581.213 92.842C581.326 92.2182 581.156 91.9347 580.759 91.9347H580.306ZM574.238 129.874H568.907L575.655 87.6814H583.538C585.636 87.6814 587.167 88.8723 586.714 91.5377L584.729 103.957C584.332 105.999 583.425 106.906 582.347 107.303C583.028 107.643 584.048 108.494 583.765 110.649L580.929 128.343C580.816 128.967 580.816 129.477 580.929 129.761V129.874H575.712C575.485 129.59 575.428 129.08 575.542 128.456L578.264 111.273C578.434 110.592 578.151 110.479 577.754 110.479H577.357L574.238 129.874Z" fill="white"/>
<path d="M565.742 87.6814H574.759L573.965 92.7286H570.279L568.294 105.035H571.469L570.676 110.252H567.443L565.118 124.77H568.974L568.18 129.874H558.993L565.742 87.6814Z" fill="white"/>
<path d="M557.648 111.67H554.756L551.864 129.874H546.533L553.281 87.6814H560.767C563.206 87.6814 564.68 88.929 564.226 92.0481L561.788 107.417C561.277 110.536 559.86 111.67 557.648 111.67ZM557.932 91.9914L555.493 107.19H555.89C556.344 107.19 556.514 107.076 556.684 106.396L558.839 92.9555C558.952 92.3317 558.782 91.9914 558.328 91.9914H557.932Z" fill="white"/>
<path d="M540.435 130.158H539.642C535.558 130.158 533.914 127.776 534.424 124.543L540.322 87.6814H545.766L539.982 124.203C539.812 124.883 540.039 125.054 540.435 125.054C540.832 125.054 540.946 124.883 541.116 124.203L546.901 87.6814H552.401L546.504 124.6C545.993 127.776 544.349 130.158 540.435 130.158Z" fill="white"/>
<path d="M527.753 130.158H526.505C522.819 130.158 521.004 128.116 521.628 124.657L523.67 111.897H528.887L526.846 124.713C526.789 125.11 526.846 125.564 527.356 125.564C527.753 125.564 527.866 125.394 528.036 124.713L529.795 113.768C529.965 112.634 529.738 112.18 529.114 111.216L527.186 108.324C525.598 105.999 524.974 104.525 525.428 101.746L526.902 92.5019C527.413 89.2694 528.774 87.3979 532.63 87.3979H533.878C537.677 87.3979 538.982 89.2694 538.528 92.1616L536.713 103.447H531.666L533.424 92.5019C533.481 92.1049 533.424 91.7079 532.97 91.7079C532.517 91.7079 532.46 91.9348 532.29 92.6153L530.815 101.859C530.645 102.937 530.872 103.504 531.326 104.184L533.254 107.076C535.069 109.969 535.806 111.216 535.352 113.825L533.651 124.6C533.027 128.229 531.553 130.158 527.753 130.158Z" fill="white"/>
<path d="M516.174 91.9347L513.962 105.715H514.472C514.869 105.715 514.983 105.659 515.153 104.921L517.081 92.842C517.194 92.2182 517.024 91.9347 516.627 91.9347H516.174ZM510.106 129.874H504.775L511.523 87.6814H519.406C521.504 87.6814 523.036 88.8723 522.582 91.5377L520.597 103.957C520.2 105.999 519.293 106.906 518.215 107.303C518.896 107.643 519.917 108.494 519.633 110.649L516.798 128.343C516.684 128.967 516.684 129.477 516.798 129.761V129.874H511.58C511.353 129.59 511.297 129.08 511.41 128.456L514.132 111.273C514.302 110.592 514.019 110.479 513.622 110.479H513.225L510.106 129.874Z" fill="white"/>
<path d="M495.871 129.874L498.536 112.747L499.16 87.6814H504.321L502.79 103.447L506.192 87.6814H511.126L503.867 112.691L501.202 129.874H495.871Z" fill="white"/>
<path d="M487.433 125.337C487.83 125.337 487.943 125.167 488.113 124.43L490.382 110.196H495.599L493.331 124.487C492.877 127.379 491.686 130.158 487.603 130.158H486.752C482.499 130.158 480.968 127.719 481.592 124.033L486.526 93.2958C487.149 89.4962 488.567 87.3979 492.65 87.3979H493.501C497.074 87.3979 499.002 89.2694 498.378 92.8989L496.336 105.715H491.062L493.104 93.0123C493.161 92.6153 493.274 92.1049 492.65 92.1049C492.253 92.1049 492.197 92.275 492.026 93.0123L486.979 124.487C486.923 124.884 486.809 125.337 487.433 125.337Z" fill="white"/>
<path d="M464.458 129.874L471.206 87.6814H478.465C480.904 87.6814 482.945 88.9857 482.321 92.4451L477.217 124.543C476.594 128.229 475.289 129.874 472.624 129.874H464.458ZM475.8 92.2182L470.526 125.224H470.979C471.603 125.224 471.66 124.94 471.83 124.26L476.82 93.2957C476.991 92.6152 476.934 92.2182 476.31 92.2182H475.8Z" fill="white"/>
<path d="M461.293 87.6814H470.31L469.516 92.7286H465.83L463.845 105.035H467.021L466.227 110.252H462.994L460.669 124.77H464.525L463.732 129.874H454.544L461.293 87.6814Z" fill="white"/>
<path d="M448.724 130.158H447.477C443.79 130.158 441.976 128.116 442.599 124.657L444.641 111.897H449.858L447.817 124.713C447.76 125.11 447.817 125.564 448.327 125.564C448.724 125.564 448.838 125.394 449.008 124.713L450.766 113.768C450.936 112.634 450.709 112.18 450.085 111.216L448.157 108.324C446.569 105.999 445.945 104.525 446.399 101.746L447.873 92.5019C448.384 89.2694 449.745 87.3979 453.601 87.3979H454.849C458.648 87.3979 459.953 89.2694 459.499 92.1616L457.684 103.447H452.637L454.395 92.5019C454.452 92.1049 454.395 91.7079 453.941 91.7079C453.488 91.7079 453.431 91.9348 453.261 92.6153L451.786 101.859C451.616 102.937 451.843 103.504 452.297 104.184L454.225 107.076C456.04 109.969 456.777 111.216 456.323 113.825L454.622 124.6C453.998 128.229 452.524 130.158 448.724 130.158Z" fill="white"/>
<path d="M435.817 87.6814H441.318L439.504 112.124L443.303 87.6814H447.67L440.978 129.874H435.931L437.802 102.653L433.492 129.874H429.069L435.817 87.6814Z" fill="white"/>
<path d="M425.904 87.6814H434.921L434.127 92.7286H430.441L428.456 105.035H431.632L430.838 110.252H427.606L425.28 124.77H429.137L428.343 129.874H419.156L425.904 87.6814Z" fill="white"/>
<path d="M406.362 129.874L413.111 87.6814H420.37C422.808 87.6814 424.85 88.9857 424.226 92.4451L419.122 124.543C418.498 128.229 417.194 129.874 414.529 129.874H406.362ZM417.704 92.2182L412.43 125.224H412.884C413.508 125.224 413.565 124.94 413.735 124.26L418.725 93.2957C418.895 92.6152 418.839 92.2182 418.215 92.2182H417.704Z" fill="white"/>
<path d="M400.318 87.6814H405.819L404.004 112.124L407.804 87.6814H412.17L405.479 129.874H400.431L402.303 102.653L397.993 129.874H393.569L400.318 87.6814Z" fill="white"/>
<path d="M398.365 93.9196L393.544 124.203C392.92 127.606 391.332 130.158 387.476 130.158H386.682C382.599 130.158 380.784 127.776 381.408 123.693L386.172 93.9196C386.796 90.0066 388.213 87.3979 392.297 87.3979H393.09C397.344 87.3979 398.988 90.0066 398.365 93.9196ZM388.043 124.09L392.977 93.2391C393.091 92.6153 392.92 92.275 392.467 92.275C392.126 92.275 391.9 92.6153 391.786 93.2391L386.852 124.09C386.682 124.77 386.739 125.167 387.363 125.167C387.703 125.167 387.93 124.827 388.043 124.09Z" fill="white"/>
<path d="M374.566 125.337C374.963 125.337 375.076 125.167 375.246 124.43L377.515 110.196H382.732L380.464 124.487C380.01 127.379 378.819 130.158 374.736 130.158H373.885C369.632 130.158 368.101 127.719 368.725 124.033L373.658 93.2958C374.282 89.4962 375.7 87.3979 379.783 87.3979H380.634C384.207 87.3979 386.135 89.2694 385.511 92.8989L383.469 105.715H378.195L380.237 93.0123C380.293 92.6153 380.407 92.1049 379.783 92.1049C379.386 92.1049 379.329 92.275 379.159 93.0123L374.112 124.487C374.055 124.884 373.942 125.337 374.566 125.337Z" fill="white"/>
<path d="M360.566 129.874H355.235L360.792 107.87L362.097 87.6814H367.484L365.556 104.298L368.959 87.6814H374.119L369.016 107.87L367.711 129.874H362.437L364.195 112.067L360.566 129.874Z" fill="white"/>
<path d="M344.627 129.874H339.296L346.044 87.6814H351.375L348.823 103.617L353.077 87.6814H358.351L352.68 107.643L351.886 129.874H346.271L347.349 112.521L344.627 129.874Z" fill="white"/>
<path d="M333.199 130.158H332.405C328.322 130.158 326.677 127.776 327.187 124.543L333.085 87.6814H338.529L332.745 124.203C332.575 124.883 332.802 125.054 333.199 125.054C333.596 125.054 333.709 124.883 333.879 124.203L339.664 87.6814H345.165L339.267 124.6C338.756 127.776 337.112 130.158 333.199 130.158Z" fill="white"/>
<path d="M325.108 91.9347L322.897 105.715H323.407C323.804 105.715 323.917 105.659 324.087 104.921L326.016 92.842C326.129 92.2182 325.959 91.9347 325.562 91.9347H325.108ZM319.04 129.874H313.709L320.458 87.6814H328.341C330.439 87.6814 331.97 88.8723 331.517 91.5377L329.532 103.957C329.135 105.999 328.227 106.906 327.15 107.303C327.83 107.643 328.851 108.494 328.568 110.649L325.732 128.343C325.619 128.967 325.619 129.477 325.732 129.761V129.874H320.515C320.288 129.59 320.231 129.08 320.345 128.456L323.067 111.273C323.237 110.592 322.953 110.479 322.556 110.479H322.159L319.04 129.874Z" fill="white"/>
<path d="M300.917 129.874L307.665 87.6814H314.924C317.363 87.6814 319.404 88.9857 318.78 92.4451L313.676 124.543C313.053 128.229 311.748 129.874 309.083 129.874H300.917ZM312.259 92.2182L306.985 125.224H307.438C308.062 125.224 308.119 124.94 308.289 124.26L313.279 93.2957C313.45 92.6152 313.393 92.2182 312.769 92.2182H312.259Z" fill="white"/>
<path d="M281.443 91.9347V105.715H281.84C282.237 105.715 282.464 105.488 282.464 104.978V92.6719C282.464 92.1615 282.407 91.9347 281.897 91.9347H281.443ZM281.443 110.479V129.874H275.886V87.6814H284.506C286.491 87.6814 287.908 88.929 287.908 91.5944V103.787C287.908 105.999 286.831 106.906 285.98 107.303C286.888 107.7 288.022 108.608 288.022 110.366V128.343C288.022 128.967 288.078 129.364 288.249 129.761V129.874H282.861C282.578 129.59 282.464 129.137 282.464 128.513V111.216C282.464 110.819 282.464 110.479 281.84 110.479H281.443Z" fill="white"/>
<path d="M265.751 87.6814H274.995V92.7286H271.195V105.035H274.484V110.252H271.195V124.77H275.108V129.874H265.751V87.6814Z" fill="white"/>
<path d="M261.068 111.67H258.459V129.874H252.958V87.6814H261.011C263.279 87.6814 264.924 88.929 264.924 91.9347V107.417C264.924 110.309 263.279 111.67 261.068 111.67ZM258.459 91.9914V107.19H258.856C259.31 107.19 259.536 106.906 259.536 106.282V92.842C259.536 92.3316 259.48 91.9914 258.856 91.9914H258.459Z" fill="white"/>
<path d="M246.246 130.158H245.396C241.142 130.158 239.611 127.719 239.611 124.827V87.6814H245.226V124.203C245.226 124.77 245.396 125.054 245.793 125.054C246.19 125.054 246.417 124.77 246.417 124.203V87.6814H252.031V124.827C252.031 127.719 250.273 130.158 246.246 130.158Z" fill="white"/>
<path d="M233.12 130.158H231.872C228.242 130.158 226.428 128.456 226.428 125.054V111.897H231.872V124.657C231.872 125.281 232.042 125.564 232.439 125.564C232.836 125.564 233.063 125.281 233.063 124.657V113.712C233.063 112.577 232.949 112.18 232.099 111.33L229.093 108.381C227.278 106.623 226.598 104.865 226.598 102.199V92.6153C226.598 89.4395 228.072 87.3979 232.099 87.3979H233.346C237.373 87.3979 238.564 89.4395 238.564 92.1616V103.504H233.29V92.3885C233.29 91.9348 233.12 91.7079 232.723 91.7079C232.326 91.7079 232.156 91.9348 232.156 92.3885V101.973C232.156 103.05 232.326 103.39 233.006 104.128L235.955 107.076C238.053 109.061 238.791 110.536 238.791 113.485V124.373C238.791 128.003 236.976 130.158 233.12 130.158Z" fill="white"/>
<path d="M215.429 91.9347V105.715H215.826C216.223 105.715 216.45 105.488 216.45 104.978V92.6719C216.45 92.1615 216.393 91.9347 215.883 91.9347H215.429ZM215.429 110.479V129.874H209.872V87.6814H218.492C220.476 87.6814 221.894 88.929 221.894 91.5944V103.787C221.894 105.999 220.817 106.906 219.966 107.303C220.873 107.7 222.008 108.608 222.008 110.366V128.343C222.008 128.967 222.064 129.364 222.234 129.761V129.874H216.847C216.563 129.59 216.45 129.137 216.45 128.513V111.216C216.45 110.819 216.45 110.479 215.826 110.479H215.429Z" fill="white"/>
<path d="M200.693 129.874V112.747L197.177 87.6814H202.621L203.586 103.504L204.55 87.6814H209.483L206.194 112.747V129.874H200.693Z" fill="white"/>
<path d="M191.242 125.337C191.639 125.337 191.809 125.054 191.809 124.43V110.196H197.197V124.543C197.197 127.662 195.609 130.158 191.752 130.158H190.845C186.705 130.158 185.061 127.946 185.061 124.09V93.2958C185.061 89.8365 186.592 87.3979 190.845 87.3979H191.752C195.609 87.3979 197.197 89.5529 197.197 92.7854V105.772H191.809V92.9556C191.809 92.3885 191.639 92.1049 191.242 92.1049C190.845 92.1049 190.675 92.3885 190.675 92.9556V124.43C190.675 125.054 190.845 125.337 191.242 125.337Z" fill="white"/>
<path d="M168.391 129.874V87.6814H176.273C178.712 87.6814 180.527 88.9857 180.527 92.3884V124.94C180.527 128.286 178.825 129.874 176.387 129.874H168.391ZM173.835 92.2182V125.224H174.345C174.799 125.224 175.026 124.883 175.026 124.146V93.239C175.026 92.5585 174.799 92.2182 174.345 92.2182H173.835Z" fill="white"/>
<path d="M158.256 87.6814H167.5V92.7286H163.7V105.035H166.989V110.252H163.7V124.77H167.613V129.874H158.256V87.6814Z" fill="white"/>
<path d="M151.765 130.158H150.517C146.887 130.158 145.073 128.456 145.073 125.054V111.897H150.517V124.657C150.517 125.281 150.687 125.564 151.084 125.564C151.481 125.564 151.708 125.281 151.708 124.657V113.712C151.708 112.577 151.594 112.18 150.744 111.33L147.738 108.381C145.923 106.623 145.243 104.865 145.243 102.199V92.6153C145.243 89.4395 146.717 87.3979 150.744 87.3979H151.991C156.018 87.3979 157.209 89.4395 157.209 92.1616V103.504H151.935V92.3885C151.935 91.9348 151.765 91.7079 151.368 91.7079C150.971 91.7079 150.801 91.9348 150.801 92.3885V101.973C150.801 103.05 150.971 103.39 151.651 104.128L154.6 107.076C156.698 109.061 157.436 110.536 157.436 113.485V124.373C157.436 128.003 155.621 130.158 151.765 130.158Z" fill="white"/>
<path d="M132.062 87.6814H137.676L139.831 112.01L139.718 87.6814H144.255V129.874H139.094L136.485 102.766L136.542 129.874H132.062V87.6814Z" fill="white"/>
<path d="M121.871 87.6814H131.114V92.7286H127.315V105.035H130.604V110.252H127.315V124.77H131.228V129.874H121.871V87.6814Z" fill="white"/>
<path d="M108.801 129.874V87.6814H116.684C119.122 87.6814 120.937 88.9857 120.937 92.3884V124.94C120.937 128.286 119.236 129.874 116.797 129.874H108.801ZM114.245 92.2182V125.224H114.755C115.209 125.224 115.436 124.883 115.436 124.146V93.239C115.436 92.5585 115.209 92.2182 114.755 92.2182H114.245Z" fill="white"/>
<path d="M95.6768 87.6814H101.291L103.446 112.01L103.333 87.6814H107.87V129.874H102.709L100.1 102.766L100.157 129.874H95.6768V87.6814Z" fill="white"/>
<path d="M94.6951 93.8062V123.863C94.6951 127.946 92.5401 130.158 88.8539 130.158H88.06C84.2037 130.158 82.1621 127.889 82.1621 123.863V93.8062C82.1621 89.7798 83.9768 87.3979 88.06 87.3979H88.8539C92.9371 87.3979 94.6951 89.8932 94.6951 93.8062ZM89.0808 124.316V93.2391C89.0808 92.6153 88.8539 92.275 88.457 92.275C88.06 92.275 87.8332 92.6153 87.8332 93.2391V124.316C87.8332 124.94 88.06 125.224 88.457 125.224C88.8539 125.224 89.0808 124.94 89.0808 124.316Z" fill="white"/>
<path d="M75.3846 125.337C75.7815 125.337 75.9517 125.054 75.9517 124.43V110.196H81.3392V124.543C81.3392 127.662 79.7513 130.158 75.895 130.158H74.9876C70.8477 130.158 69.2031 127.946 69.2031 124.09V93.2958C69.2031 89.8365 70.7343 87.3979 74.9876 87.3979H75.895C79.7513 87.3979 81.3392 89.5529 81.3392 92.7854V105.772H75.9517V92.9556C75.9517 92.3885 75.7815 92.1049 75.3846 92.1049C74.9876 92.1049 74.8175 92.3885 74.8175 92.9556V124.43C74.8175 125.054 74.9876 125.337 75.3846 125.337Z" fill="white"/>
<path d="M61.6219 129.874H56.1777L58.3327 107.87L56.3479 87.6814H61.9622L62.6994 104.298L63.4934 87.6814H68.7107L66.7826 107.87L69.051 129.874H63.5501L62.5293 112.067L61.6219 129.874Z" fill="white"/>
<path d="M45.1302 129.874H39.686V87.6814H45.1302L45.0735 103.617L46.8883 87.6814H52.3325L49.6671 107.133L52.5593 129.874H46.7748L45.0735 112.861L45.1302 129.874Z" fill="white"/>
<path d="M32.9174 130.158H32.0667C27.8134 130.158 26.2822 127.719 26.2822 124.827V87.6814H31.8966V124.203C31.8966 124.77 32.0667 125.054 32.4637 125.054C32.8606 125.054 33.0875 124.77 33.0875 124.203V87.6814H38.7018V124.827C38.7018 127.719 36.9438 130.158 32.9174 130.158Z" fill="white"/>
<path d="M18.8252 91.9347V105.715H19.2222C19.6191 105.715 19.846 105.488 19.846 104.978V92.6719C19.846 92.1615 19.7893 91.9347 19.2789 91.9347H18.8252ZM18.8252 110.479V129.874H13.2676V87.6814H21.8876C23.8724 87.6814 25.2902 88.929 25.2902 91.5944V103.787C25.2902 105.999 24.2127 106.906 23.362 107.303C24.2694 107.7 25.4036 108.608 25.4036 110.366V128.343C25.4036 128.967 25.4603 129.364 25.6305 129.761V129.874H20.243C19.9594 129.59 19.846 129.137 19.846 128.513V111.216C19.846 110.819 19.846 110.479 19.2222 110.479H18.8252Z" fill="white"/>
<path d="M0.197754 129.874V87.6814H8.08051C10.5191 87.6814 12.3338 88.9857 12.3338 92.3884V124.94C12.3338 128.286 10.6325 129.874 8.19393 129.874H0.197754ZM5.64196 92.2182V125.224H6.15235C6.60604 125.224 6.83288 124.883 6.83288 124.146V93.239C6.83288 92.5585 6.60604 92.2182 6.15235 92.2182H5.64196Z" fill="white"/>
<path d="M389.78 176.824C389.943 176.824 390.105 176.661 390.16 176.336L392.764 159.949H395.477L392.873 176.227C392.601 177.909 392.167 179.483 389.834 179.483H389.454C387.338 179.483 386.524 178.235 386.796 176.336L392.276 142.097C392.656 139.981 393.144 138.896 395.477 138.896H395.857C397.431 138.896 398.733 139.656 398.353 142.043L395.966 156.91H393.253L395.64 142.097C395.694 141.718 395.64 141.5 395.423 141.5C395.26 141.5 395.097 141.718 395.043 142.097L389.563 176.336C389.509 176.661 389.563 176.824 389.78 176.824Z" fill="white"/>
<path d="M391.545 139.004L385.088 179.374H382.32L388.777 139.004H391.545Z" fill="white"/>
<path d="M383.254 139.004H386.021L379.998 176.607H381.68L381.246 179.374H376.797L383.254 139.004Z" fill="white"/>
<path d="M374.997 167.111L377.873 146.547L374.238 167.111H374.997ZM373.261 179.374L374.617 169.824H373.749L372.067 179.374H369.571L377.331 139.004H381.02L375.865 179.374H373.261Z" fill="white"/>
<path d="M365.512 179.374L371.535 141.717H370.287L370.721 139.004H375.984L375.55 141.717H374.302L368.279 179.374H365.512Z" fill="white"/>
<path d="M369.609 139.004L363.153 179.374H360.385L366.842 139.004H369.609Z" fill="white"/>
<path d="M353.165 179.374H350.398L356.855 139.004H360.87C362.227 139.004 362.824 139.71 362.606 141.066L360.165 156.313C360.002 157.344 359.405 157.724 358.971 157.887C359.242 158.05 359.893 158.375 359.676 159.732L356.638 178.669C356.584 178.94 356.584 179.157 356.638 179.32V179.374H353.925C353.816 179.265 353.816 179.048 353.871 178.669L356.855 160.057C356.909 159.786 356.801 159.623 356.529 159.623H356.312L353.165 179.374ZM359.242 141.5L356.746 156.856H357.018C357.398 156.856 357.398 156.693 357.452 156.313L359.731 142.097C359.785 141.717 359.731 141.5 359.459 141.5H359.242Z" fill="white"/>
<path d="M351.226 139.004H355.729L355.295 141.717H353.559L351.171 156.53H352.799L352.365 159.352H350.737L347.97 176.607H349.76L349.326 179.374H344.769L351.226 139.004Z" fill="white"/>
<path d="M344.712 160.926H343.247L340.317 179.374H337.549L344.006 139.004H347.913C349.324 139.004 349.921 139.818 349.649 141.392L346.882 158.701C346.611 160.383 345.96 160.926 344.712 160.926ZM346.394 141.5L343.681 158.321H343.844C344.115 158.321 344.278 158.375 344.332 157.995L346.882 142.097C347.045 141.5 346.828 141.5 346.557 141.5H346.394Z" fill="white"/>
<path d="M333.697 179.482H333.317C330.984 179.482 330.441 178.126 330.658 176.661L336.681 139.004H339.448L333.48 176.335C333.425 176.661 333.48 176.824 333.751 176.824C333.914 176.824 334.022 176.661 334.077 176.335L340.045 139.004H342.812L336.79 176.661C336.518 178.397 335.704 179.482 333.697 179.482Z" fill="white"/>
<path d="M326.48 179.483H325.883C323.767 179.483 323.008 178.289 323.387 176.281L325.829 161.034H328.596L326.155 176.336C326.1 176.715 326.155 176.932 326.372 176.932C326.589 176.932 326.697 176.77 326.752 176.39L329.03 162.174C329.139 161.577 329.085 160.98 328.813 160.492L327.62 158.05C326.914 156.585 326.752 155.608 327.023 153.926L328.922 142.043C329.302 139.927 329.844 138.896 331.961 138.896H332.557C334.457 138.896 335.27 139.764 334.999 141.555L332.774 155.391H330.116L332.286 141.935C332.34 141.555 332.286 141.392 332.069 141.392C331.906 141.392 331.852 141.392 331.689 142.043L329.736 154.306C329.573 155.12 329.627 155.391 329.899 155.988L331.092 158.484C331.906 160.057 332.015 160.871 331.743 162.553L329.519 176.39C329.139 178.506 328.379 179.483 326.48 179.483Z" fill="white"/>
<path d="M315.679 179.374H312.912L319.369 139.004H323.384C324.74 139.004 325.337 139.71 325.12 141.066L322.678 156.313C322.516 157.344 321.919 157.724 321.485 157.887C321.756 158.05 322.407 158.375 322.19 159.732L319.152 178.669C319.097 178.94 319.097 179.157 319.152 179.32V179.374H316.439C316.33 179.265 316.33 179.048 316.384 178.669L319.369 160.057C319.423 159.786 319.314 159.623 319.043 159.623H318.826L315.679 179.374ZM321.756 141.5L319.26 156.856H319.531C319.911 156.856 319.911 156.693 319.965 156.313L322.244 142.097C322.299 141.717 322.244 141.5 321.973 141.5H321.756Z" fill="white"/>
<path d="M307.528 179.374L310.241 162.173L312.249 139.004H314.908L312.575 156.747L315.884 139.004H318.435L313.009 162.173L310.296 179.374H307.528Z" fill="white"/>
<path d="M302.317 176.824C302.48 176.824 302.643 176.661 302.697 176.336L305.301 159.949H308.014L305.41 176.227C305.139 177.909 304.704 179.483 302.371 179.483H301.991C299.875 179.483 299.061 178.235 299.333 176.336L304.813 142.097C305.193 139.981 305.681 138.896 308.014 138.896H308.394C309.968 138.896 311.27 139.656 310.89 142.043L308.503 156.91H305.79L308.177 142.097C308.231 141.718 308.177 141.5 307.96 141.5C307.797 141.5 307.634 141.718 307.58 142.097L302.1 176.336C302.046 176.661 302.1 176.824 302.317 176.824Z" fill="white"/>
<path d="M288.857 179.374L295.314 139.004H299.004C300.469 139.004 301.337 139.71 301.065 141.392L295.477 176.335C295.097 178.343 294.663 179.374 292.981 179.374H288.857ZM297.701 141.5L292.004 176.824H292.221C292.492 176.824 292.547 176.824 292.709 176.118L298.19 142.151C298.244 141.772 298.298 141.5 297.918 141.5H297.701Z" fill="white"/>
<path d="M289.685 139.004H294.188L293.754 141.717H292.018L289.63 156.53H291.258L290.824 159.352H289.196L286.429 176.607H288.219L287.785 179.374H283.228L289.685 139.004Z" fill="white"/>
<path d="M279.484 179.483H278.887C276.771 179.483 276.011 178.289 276.391 176.281L278.833 161.034H281.6L279.158 176.336C279.104 176.715 279.158 176.932 279.375 176.932C279.592 176.932 279.701 176.77 279.755 176.39L282.034 162.174C282.142 161.577 282.088 160.98 281.817 160.492L280.623 158.05C279.918 156.585 279.755 155.608 280.026 153.926L281.925 142.043C282.305 139.927 282.848 138.896 284.964 138.896H285.561C287.46 138.896 288.274 139.764 288.003 141.555L285.778 155.391H283.119L285.29 141.935C285.344 141.555 285.29 141.392 285.072 141.392C284.91 141.392 284.855 141.392 284.693 142.043L282.739 154.306C282.577 155.12 282.631 155.391 282.902 155.988L284.096 158.484C284.91 160.057 285.018 160.871 284.747 162.553L282.522 176.39C282.142 178.506 281.383 179.483 279.484 179.483Z" fill="white"/>
<path d="M274.981 139.004H278.02L275.036 164.398L278.997 139.004H281.167L274.71 179.374H271.943L275.198 150.833L270.695 179.374H268.524L274.981 139.004Z" fill="white"/>
<path d="M269.352 139.004H273.856L273.422 141.717H271.685L269.298 156.53H270.926L270.491 159.352H268.864L266.096 176.607H267.887L267.453 179.374H262.895L269.352 139.004Z" fill="white"/>
<path d="M255.57 179.374L262.027 139.004H265.716C267.182 139.004 268.05 139.71 267.778 141.392L262.19 176.335C261.81 178.343 261.376 179.374 259.694 179.374H255.57ZM264.414 141.5L258.717 176.824H258.934C259.205 176.824 259.26 176.824 259.422 176.118L264.903 142.151C264.957 141.772 265.011 141.5 264.631 141.5H264.414Z" fill="white"/>
<path d="M254.649 139.004H257.687L254.703 164.398L258.664 139.004H260.835L254.378 179.374H251.61L254.866 150.833L250.362 179.374H248.192L254.649 139.004Z" fill="white"/>
<path d="M252.915 142.423L247.489 176.336C247.109 178.343 246.349 179.483 244.396 179.483H244.071C241.737 179.483 240.923 178.018 241.303 176.01L246.675 142.423C247.055 140.307 247.597 138.896 249.822 138.896H250.148C252.481 138.896 253.295 140.307 252.915 142.423ZM244.667 176.281L250.148 142.043C250.202 141.663 250.093 141.5 249.876 141.5C249.714 141.5 249.605 141.663 249.551 142.043L244.071 176.336C244.016 176.661 244.071 176.824 244.342 176.824C244.505 176.824 244.613 176.661 244.667 176.281Z" fill="white"/>
<path d="M236.961 176.824C237.124 176.824 237.287 176.661 237.341 176.336L239.945 159.949H242.658L240.054 176.227C239.783 177.909 239.348 179.483 237.015 179.483H236.635C234.519 179.483 233.705 178.235 233.977 176.336L239.457 142.097C239.837 139.981 240.325 138.896 242.658 138.896H243.038C244.612 138.896 245.914 139.656 245.534 142.043L243.147 156.91H240.434L242.821 142.097C242.875 141.718 242.821 141.5 242.604 141.5C242.441 141.5 242.279 141.718 242.224 142.097L236.744 176.336C236.69 176.661 236.744 176.824 236.961 176.824Z" fill="white"/>
<path d="M228.873 179.374H226.105L230.392 158.538L232.671 139.004H235.547L232.997 156.802L236.306 139.004H238.911L234.841 158.538L232.562 179.374H229.795L232.183 160.708L228.873 179.374Z" fill="white"/>
<path d="M221.654 179.374H218.886L223.173 158.538L225.452 139.004H228.327L225.777 156.802L229.087 139.004H231.692L227.622 158.538L225.343 179.374H222.576L224.963 160.708L221.654 179.374Z" fill="white"/>
<path d="M211.671 179.374H208.904L215.361 139.004H218.128L215.035 157.778L218.942 139.004H221.655L217.368 158.267L215.524 179.374H212.539L214.764 159.623V159.298L211.671 179.374Z" fill="white"/>
<path d="M205.052 179.482H204.672C202.339 179.482 201.796 178.126 202.013 176.661L208.036 139.004H210.803L204.835 176.335C204.78 176.661 204.835 176.824 205.106 176.824C205.269 176.824 205.377 176.661 205.432 176.335L211.4 139.004H214.167L208.145 176.661C207.873 178.397 207.059 179.482 205.052 179.482Z" fill="white"/>
<path d="M197.021 179.374H194.254L200.711 139.004H204.726C206.083 139.004 206.679 139.71 206.462 141.066L204.021 156.313C203.858 157.344 203.261 157.724 202.827 157.887C203.098 158.05 203.749 158.375 203.532 159.732L200.494 178.669C200.44 178.94 200.44 179.157 200.494 179.32V179.374H197.781C197.672 179.265 197.672 179.048 197.727 178.669L200.711 160.057C200.765 159.786 200.657 159.623 200.385 159.623H200.168L197.021 179.374ZM203.098 141.5L200.602 156.856H200.874C201.253 156.856 201.253 156.693 201.308 156.313L203.587 142.097C203.641 141.717 203.587 141.5 203.315 141.5H203.098Z" fill="white"/>
<path d="M186.929 179.374L193.386 139.004H197.075C198.54 139.004 199.409 139.71 199.137 141.392L193.548 176.335C193.169 178.343 192.735 179.374 191.052 179.374H186.929ZM195.773 141.5L190.076 176.824H190.293C190.564 176.824 190.618 176.824 190.781 176.118L196.261 142.151C196.316 141.772 196.37 141.5 195.99 141.5H195.773Z" fill="white"/>
<path d="M171.025 159.623V179.374H168.149V139.004H172.653C173.792 139.004 174.443 139.818 174.443 141.121V156.096C174.443 157.344 173.846 157.724 173.412 157.887C173.846 158.05 174.497 158.592 174.497 159.623V178.614C174.497 178.886 174.552 179.103 174.606 179.32V179.374H171.784C171.676 179.265 171.622 179.048 171.622 178.669V160.003C171.622 159.732 171.513 159.623 171.242 159.623H171.025ZM171.025 141.5V156.856H171.242C171.513 156.856 171.622 156.693 171.622 156.422V141.934C171.622 141.663 171.513 141.5 171.296 141.5H171.025Z" fill="white"/>
<path d="M162.36 139.004H167.027V141.717H165.236V156.53H166.918V159.352H165.236V176.607H167.081V179.374H162.36V139.004Z" fill="white"/>
<path d="M159.162 160.926H157.805V179.374H154.93V139.004H159.108C160.356 139.004 161.17 139.656 161.17 141.229V158.701C161.17 160.166 160.301 160.926 159.162 160.926ZM157.805 141.5V158.321H158.023C158.294 158.321 158.402 158.158 158.402 157.833V141.989C158.402 141.663 158.294 141.5 158.023 141.5H157.805Z" fill="white"/>
<path d="M150.757 179.482H150.377C148.152 179.482 147.393 178.234 147.393 176.715V139.004H150.268V176.39C150.268 176.661 150.377 176.824 150.54 176.824C150.757 176.824 150.865 176.661 150.865 176.39V139.004H153.741V176.715C153.741 178.234 152.873 179.482 150.757 179.482Z" fill="white"/>
<path d="M143.328 179.483H142.731C140.832 179.483 139.855 178.506 139.855 176.607V161.034H142.731V176.444C142.731 176.77 142.84 176.932 143.003 176.932C143.22 176.932 143.328 176.77 143.328 176.444V162.174C143.328 161.305 143.22 161.088 142.84 160.492L140.995 158.05C140.127 156.802 139.91 155.825 139.91 154.143V141.935C139.91 139.981 140.615 138.896 142.786 138.896H143.382C145.553 138.896 146.15 139.981 146.15 141.718V155.391H143.382V141.772C143.382 141.5 143.274 141.392 143.111 141.392C142.894 141.392 142.786 141.5 142.786 141.772V154.36C142.786 155.228 142.894 155.391 143.274 155.988L145.119 158.484C146.15 159.786 146.204 160.654 146.204 162.391V176.39C146.204 178.452 145.227 179.483 143.328 179.483Z" fill="white"/>
<path d="M132.479 159.623V179.374H129.603V139.004H134.107C135.246 139.004 135.897 139.818 135.897 141.121V156.096C135.897 157.344 135.3 157.724 134.866 157.887C135.3 158.05 135.951 158.592 135.951 159.623V178.614C135.951 178.886 136.006 179.103 136.06 179.32V179.374H133.238C133.13 179.265 133.076 179.048 133.076 178.669V160.003C133.076 159.732 132.967 159.623 132.696 159.623H132.479ZM132.479 141.5V156.856H132.696C132.967 156.856 133.076 156.693 133.076 156.422V141.934C133.076 141.663 132.967 141.5 132.75 141.5H132.479Z" fill="white"/>
<path d="M124.062 179.374V162.173L122.271 139.004H125.147L125.581 156.747L126.124 139.004H128.674L126.938 162.173V179.374H124.062Z" fill="white"/>
<path d="M118.366 176.824C118.529 176.824 118.638 176.661 118.638 176.336V159.949H121.459V176.336C121.459 178.235 120.591 179.483 118.638 179.483H118.204C115.979 179.483 115.165 178.343 115.165 176.336V141.935C115.165 140.144 115.979 138.896 118.204 138.896H118.638C120.754 138.896 121.459 140.144 121.459 141.935V156.91H118.638V141.989C118.638 141.663 118.529 141.5 118.366 141.5C118.149 141.5 118.041 141.663 118.041 141.989V176.336C118.041 176.661 118.149 176.824 118.366 176.824Z" fill="white"/>
<path d="M104.913 179.374V139.004H108.982C110.339 139.004 111.261 139.764 111.261 141.5V176.769C111.261 178.343 110.556 179.374 109.091 179.374H104.913ZM107.788 141.5V176.824H108.005C108.277 176.824 108.385 176.607 108.385 176.227V142.043C108.385 141.663 108.277 141.5 108.005 141.5H107.788Z" fill="white"/>
<path d="M99.124 139.004H103.79V141.717H102V156.53H103.682V159.352H102V176.607H103.845V179.374H99.124V139.004Z" fill="white"/>
<path d="M95.0596 179.483H94.4627C92.5636 179.483 91.5869 178.506 91.5869 176.607V161.034H94.4627V176.444C94.4627 176.77 94.5712 176.932 94.734 176.932C94.951 176.932 95.0596 176.77 95.0596 176.444V162.174C95.0596 161.305 94.951 161.088 94.5712 160.492L92.7264 158.05C91.8582 156.802 91.6412 155.825 91.6412 154.143V141.935C91.6412 139.981 92.3466 138.896 94.517 138.896H95.1138C97.2842 138.896 97.8811 139.981 97.8811 141.718V155.391H95.1138V141.772C95.1138 141.5 95.0053 141.392 94.8425 141.392C94.6255 141.392 94.517 141.5 94.517 141.772V154.36C94.517 155.228 94.6255 155.391 95.0053 155.988L96.8502 158.484C97.8811 159.786 97.9354 160.654 97.9354 162.391V176.39C97.9354 178.452 96.9587 179.483 95.0596 179.483Z" fill="white"/>
<path d="M83.9971 139.004H87.1442L88.2294 164.398L88.1208 139.004H90.3998V179.374H87.524L86.1675 150.833L86.2217 179.374H83.9971V139.004Z" fill="white"/>
<path d="M78.2085 139.004H82.8749V141.717H81.0843V156.53H82.7663V159.352H81.0843V176.607H82.9291V179.374H78.2085V139.004Z" fill="white"/>
<path d="M70.6714 179.374V139.004H74.7409C76.0974 139.004 77.0198 139.764 77.0198 141.5V176.769C77.0198 178.343 76.3144 179.374 74.8494 179.374H70.6714ZM73.5472 141.5V176.824H73.7642C74.0355 176.824 74.144 176.607 74.144 176.227V142.043C74.144 141.663 74.0355 141.5 73.7642 141.5H73.5472Z" fill="white"/>
<path d="M63.0815 139.004H66.2286L67.3138 164.398L67.2053 139.004H69.4842V179.374H66.6085L65.252 150.833L65.3062 179.374H63.0815V139.004Z" fill="white"/>
<path d="M61.8954 142.26V176.118C61.8954 178.235 60.973 179.483 58.8569 179.483H58.5313C56.4152 179.483 55.4385 178.235 55.4385 176.118V142.26C55.4385 140.144 56.4152 138.896 58.5313 138.896H58.8569C60.973 138.896 61.8954 140.144 61.8954 142.26ZM58.9654 176.336V141.989C58.9654 141.663 58.8569 141.5 58.6941 141.5C58.477 141.5 58.3685 141.663 58.3685 141.989V176.336C58.3685 176.661 58.477 176.824 58.6941 176.824C58.8569 176.824 58.9654 176.661 58.9654 176.336Z" fill="white"/>
<path d="M51.1555 176.824C51.3182 176.824 51.4268 176.661 51.4268 176.336V159.949H54.2483V176.336C54.2483 178.235 53.3801 179.483 51.4268 179.483H50.9927C48.768 179.483 47.9541 178.343 47.9541 176.336V141.935C47.9541 140.144 48.768 138.896 50.9927 138.896H51.4268C53.5429 138.896 54.2483 140.144 54.2483 141.935V156.91H51.4268V141.989C51.4268 141.663 51.3182 141.5 51.1555 141.5C50.9384 141.5 50.8299 141.663 50.8299 141.989V176.336C50.8299 176.661 50.9384 176.824 51.1555 176.824Z" fill="white"/>
<path d="M43.2352 179.374H40.3594L41.3903 158.538L40.4679 139.004H43.4522L43.7778 156.802L44.2118 139.004H46.9249L45.9482 158.538L47.0334 179.374H44.1576L43.615 160.708L43.2352 179.374Z" fill="white"/>
<path d="M35.804 179.374H32.9282L33.9592 158.538L33.0367 139.004H36.0211L36.3466 156.802L36.7807 139.004H39.4937L38.517 158.538L39.6022 179.374H36.7264L36.1838 160.708L35.804 179.374Z" fill="white"/>
<path d="M25.5569 179.374H22.6812V139.004H25.5569L25.4484 157.561L26.3708 139.004H29.1924L27.8901 158.05L29.5179 179.374H26.4251L25.4484 159.678L25.5569 179.374Z" fill="white"/>
<path d="M18.5082 179.482H18.1284C15.9037 179.482 15.144 178.234 15.144 176.715V139.004H18.0198V176.39C18.0198 176.661 18.1284 176.824 18.2911 176.824C18.5082 176.824 18.6167 176.661 18.6167 176.39V139.004H21.4925V176.715C21.4925 178.234 20.6243 179.482 18.5082 179.482Z" fill="white"/>
<path d="M10.4827 159.623V179.374H7.60693V139.004H12.1105C13.25 139.004 13.9011 139.818 13.9011 141.121V156.096C13.9011 157.344 13.3043 157.724 12.8702 157.887C13.3043 158.05 13.9554 158.592 13.9554 159.623V178.614C13.9554 178.886 14.0096 179.103 14.0639 179.32V179.374H11.2424C11.1338 179.265 11.0796 179.048 11.0796 178.669V160.003C11.0796 159.732 10.9711 159.623 10.6998 159.623H10.4827ZM10.4827 141.5V156.856H10.6998C10.9711 156.856 11.0796 156.693 11.0796 156.422V141.934C11.0796 141.663 10.9711 141.5 10.754 141.5H10.4827Z" fill="white"/>
<path d="M0.0698242 179.374V139.004H4.13934C5.49584 139.004 6.41826 139.764 6.41826 141.5V176.769C6.41826 178.343 5.71288 179.374 4.24786 179.374H0.0698242ZM2.94561 141.5V176.824H3.16265C3.43395 176.824 3.54247 176.607 3.54247 176.227V142.043C3.54247 141.663 3.43395 141.5 3.16265 141.5H2.94561Z" fill="white"/>
</svg>
