<svg width="328" height="94" viewBox="0 0 328 94" fill="none" xmlns="http://www.w3.org/2000/svg">
<g clip-path="url(#clip0_3521_259)">
<path fill-rule="evenodd" clip-rule="evenodd" d="M292.01 44.4765V35.6113H283.145V44.4765H273.188V53.8556H283.145V62.7208H292.01V53.8556H301.389V44.4765H292.01Z" fill="white"/>
<path fill-rule="evenodd" clip-rule="evenodd" d="M84.9662 44.4768H73.3386V29.5088H55.0943H52.9102L55.0943 32.2711V64.9053H73.3386V50.0015H84.9662V64.9695H103.789V29.5088H84.9662V44.4768Z" fill="white"/>
<path fill-rule="evenodd" clip-rule="evenodd" d="M25.2148 29.5088L27.399 32.2711V64.9053H45.6433V29.5088H27.399H25.2148Z" fill="white"/>
<path fill-rule="evenodd" clip-rule="evenodd" d="M109.891 34.5195H124.859V64.9695H143.103V34.5195H158.071V29.5088H109.891V34.5195Z" fill="white"/>
<path fill-rule="evenodd" clip-rule="evenodd" d="M182.928 29.5088H164.684H162.5L164.684 32.2711V64.9053H182.928H208.368V59.3806H182.928V50.0015H204.513V44.4768H182.928V34.5195H208.368V29.5088H182.928Z" fill="white"/>
<path fill-rule="evenodd" clip-rule="evenodd" d="M258.797 29.5088H214.535L216.719 32.2711V64.9053H234.964V52.1857H258.733C262.073 52.1857 264.835 49.9373 264.835 46.661C264.835 46.661 264.835 46.0828 264.835 45.5689V36.1256C264.835 35.5474 264.835 35.0335 264.835 35.0335C264.835 31.7572 262.073 29.5088 258.797 29.5088ZM246.591 45.5689C246.591 46.1471 245.499 47.2392 244.407 47.2392H235.028V34.5195H244.407C245.499 34.5195 246.591 35.6116 246.591 36.1898V45.5689Z" fill="white"/>
</g>
<defs>
<clipPath id="clip0_3521_259">
<rect width="276.17" height="35.3965" fill="white" transform="translate(25.2148 29.5088)"/>
</clipPath>
</defs>
</svg>
