<svg width="1296" height="163" viewBox="0 0 1296 163" fill="none" xmlns="http://www.w3.org/2000/svg">
<path d="M1173.61 27.5166L1241.5 93.9883V27.5166H1288V147.75H1241.63L1168.31 76.7949V147.75H1121.81V27.5166H1173.61ZM1115.23 147V147.451L1115.69 147H1115.98V147.744H1115.7V147.321L1115.26 147.744H1114.95V147H1115.23ZM1123.31 146.25H1166.81V73.2559L1242.23 146.25H1286.5V29.0166H1243V97.5566L1173 29.0166H1123.31V146.25Z" fill="white"/>
<path d="M933.646 146.986C933.877 146.986 933.971 147.07 934 147.103C934.014 147.075 934.03 147.024 934.035 147H934.214V147.419H933.663V147.274H933.924C933.924 147.25 933.862 147.181 933.67 147.181C933.486 147.181 933.415 147.274 933.415 147.369V147.38C933.415 147.478 933.472 147.564 933.672 147.564C933.882 147.564 933.908 147.489 933.913 147.47H934.209C934.205 147.574 934.143 147.758 933.688 147.758H933.648C933.209 147.758 933.121 147.549 933.121 147.389V147.361C933.121 147.204 933.216 146.986 933.623 146.986H933.646ZM937.519 89.3887C937.519 101.774 941.265 116.522 952.997 128.175C964.725 139.824 984.537 148.484 1016.88 148.484H1020.55C1057.36 148.484 1072 135.014 1076.49 130.059L1077.22 129.259L1077.71 130.217C1079.88 134.392 1082.31 142.169 1083.24 146.25H1110.45V80.8828H1024.02V102.522H1065.67V103.272C1065.67 104.503 1064.91 106.084 1063.45 107.708C1061.97 109.36 1059.7 111.149 1056.48 112.798C1050.05 116.097 1039.79 118.864 1024.38 118.864C1009.58 118.864 999.212 115.123 992.534 109.367C985.848 103.604 982.938 95.8859 982.938 88.1123V86.3564C982.938 78.3891 985.26 70.8102 991.736 65.2412C998.191 59.6908 1008.65 56.2422 1024.7 56.2422C1041.54 56.2422 1051.11 59.2467 1056.6 62.7227C1061.58 65.8709 1063.14 69.3733 1063.73 71.2432H1109.62C1109.2 63.1444 1106.47 52.2618 1095.33 43.2939C1083.87 34.0708 1063.4 26.7822 1027.1 26.7822H1020.87C985.95 26.7822 965.14 35.0956 953.062 46.4473C940.991 57.7917 937.519 72.2856 937.519 84.9199V89.3887ZM1111.15 72.7432H1062.58L1062.44 72.1846C1062.07 70.7997 1060.93 67.2337 1055.8 63.9893C1050.64 60.7227 1041.38 57.7422 1024.7 57.7422C1008.83 57.7422 998.788 61.1563 992.715 66.3779C986.664 71.581 984.438 78.6844 984.438 86.3564V88.1123C984.438 95.4994 987.194 102.783 993.514 108.23C999.842 113.685 1009.82 117.364 1024.38 117.364C1039.62 117.364 1049.63 114.627 1055.8 111.463C1058.89 109.881 1061 108.197 1062.33 106.707C1063.29 105.641 1063.81 104.716 1064.03 104.022H1022.52V79.3828H1111.95V147.75H1082.02L1081.9 147.153C1081.17 143.634 1078.92 136.284 1076.85 131.867C1071.36 137.588 1056.03 149.984 1020.55 149.984H1016.88C984.275 149.984 964.03 141.249 951.939 129.239C939.853 117.233 936.019 102.059 936.019 89.3887V84.9199C936.019 72.0203 939.569 57.0703 952.034 45.3545C964.492 33.6457 985.735 25.2822 1020.87 25.2822H1027.1C1063.56 25.2822 1084.43 32.5966 1096.27 42.125C1108.14 51.6779 1110.83 63.3656 1111.15 71.8057V72.7432Z" fill="white"/>
<path d="M929.395 27.5166V147.75H882.731V27.5166H929.395ZM876.152 147V147.744H875.869V147H876.152ZM884.231 146.25H927.895V29.0166H884.231V146.25Z" fill="white"/>
<path d="M765.732 61.1416C765.732 59.925 765.888 58.6466 766.577 57.4443C767.271 56.2347 768.453 55.189 770.342 54.334C774.073 52.6457 780.761 51.6143 792.654 51.6143H794.25C807.152 51.6143 814.392 53.6932 818.485 56.4287C822.253 58.9472 823.283 61.9735 823.632 64.2217H871.539V63.6953C871.539 54.4904 868.282 45.3704 857.834 38.5088C847.324 31.6064 829.466 26.9414 800.155 26.9414H785.952C758.311 26.9414 741.414 31.1692 731.444 37.6914C721.544 44.1683 718.399 52.9618 718.398 62.418V63.8545C718.398 72.8405 721.393 81.2119 729.981 87.5273C738.619 93.8783 753.001 98.2159 775.919 98.8525L797.942 99.4912H797.945C810.387 99.89 817.513 101.044 821.539 102.933C823.579 103.89 824.876 105.059 825.644 106.455C826.405 107.839 826.599 109.362 826.599 110.933V111.093C826.599 112.608 826.357 114.164 825.532 115.63C824.705 117.1 823.33 118.412 821.181 119.502C816.923 121.662 809.508 123.014 796.804 123.014H795.367C782.361 123.014 774.855 120.408 770.534 116.859C766.483 113.532 765.338 109.465 765 106.257H716.643V107.103C716.643 114.728 718.328 125.008 728.014 133.407C737.73 141.833 755.628 148.484 788.346 148.484H802.868C834.016 148.484 852.215 143.38 862.615 135.918C872.952 128.501 875.688 118.674 875.688 108.858V106.624C875.688 100.731 874.608 95.7135 872.329 91.4746C870.053 87.2404 866.554 83.7352 861.641 80.9023C851.777 75.2159 836.259 72.2637 813.699 71.626L792.318 71.1475C781.14 70.9079 774.546 69.8318 770.729 68.1514C768.803 67.3035 767.532 66.2803 766.752 65.085C765.97 63.886 765.732 62.5912 765.732 61.3008V61.1416ZM714.218 146.986C714.609 146.986 714.679 147.114 714.679 147.239V147.253C714.679 147.403 714.568 147.469 714.285 147.477L714.151 147.48C714.012 147.483 713.989 147.507 713.989 147.537C713.989 147.566 714.005 147.593 714.153 147.593H714.163C714.324 147.593 714.341 147.541 714.344 147.514H714.652V147.522C714.652 147.64 714.568 147.757 714.2 147.757H714.111C713.765 147.757 713.684 147.651 713.684 147.53V147.521C713.684 147.406 713.761 147.305 714.049 147.297L714.187 147.293C714.343 147.288 714.361 147.264 714.361 147.226C714.361 147.19 714.338 147.155 714.18 147.155H714.171C714.009 147.155 713.987 147.22 713.984 147.26H713.673V147.25C713.673 147.153 713.716 146.986 714.127 146.986H714.218ZM767.232 61.3008C767.232 62.4041 767.433 63.3849 768.008 64.2656C768.585 65.1497 769.589 66.0114 771.333 66.7793C774.857 68.3304 781.189 69.4083 792.352 69.6475L813.737 70.127H813.741C836.345 70.7659 852.186 73.7189 862.391 79.6025C867.511 82.5546 871.224 86.2507 873.65 90.7637C876.074 95.2721 877.188 100.548 877.188 106.624V108.858C877.188 118.991 874.338 129.353 863.49 137.137C852.705 144.875 834.119 149.984 802.868 149.984H788.346C755.472 149.984 737.143 143.309 727.031 134.54C716.888 125.744 715.143 114.957 715.143 107.103V104.757H766.38L766.432 105.451C766.663 108.535 767.577 112.49 771.486 115.7C775.424 118.934 782.521 121.514 795.367 121.514H796.804C809.473 121.514 816.581 120.154 820.503 118.164C822.443 117.18 823.572 116.057 824.226 114.895C824.882 113.727 825.099 112.45 825.099 111.093V110.933C825.099 109.471 824.914 108.242 824.329 107.178C823.75 106.125 822.732 105.149 820.902 104.291C817.188 102.549 810.35 101.389 797.896 100.99L775.877 100.352C752.834 99.7115 738.09 95.3519 729.093 88.7363C720.048 82.0853 716.898 73.2209 716.898 63.8545V62.418C716.899 52.5643 720.216 43.2451 730.623 36.4365C740.961 29.6731 758.216 25.4414 785.952 25.4414H800.155C829.573 25.4414 847.783 30.1135 858.657 37.2549C869.593 44.437 873.039 54.069 873.039 63.6953V65.7217H822.305L822.23 65.0547C822.006 63.0337 821.316 60.1248 817.652 57.6758C813.925 55.1848 807.042 53.1143 794.25 53.1143H792.654C780.77 53.1143 774.372 54.1578 770.961 55.7012C769.28 56.4618 768.377 57.3208 767.879 58.1904C767.376 59.0677 767.232 60.0442 767.232 61.1416V61.3008Z" fill="white"/>
<path d="M710.884 27.5166V58.0615H624.228V71.4033H709.128V101.789H624.228V116.566H712.16V147.75H578.043V27.5166H710.884ZM572.012 147V147.186H571.461V147.288H571.993V147.469H571.461V147.562H572.004V147.744H571.181V147H572.012ZM579.543 146.25H710.66V118.066H622.728V100.289H707.628V72.9033H622.728V56.5615H709.384V29.0166H579.543V146.25Z" fill="white"/>
<path d="M570.413 84.4414C570.413 70.6388 566.161 56.8354 553.512 46.4609C540.835 36.0637 519.611 29.0166 485.464 29.0166H401.951V146.25H485.623C520.88 146.25 542.053 138.567 554.408 127.666C566.744 116.782 570.413 102.577 570.413 89.2295V84.4414ZM394.118 147C394.561 147 394.654 147.193 394.654 147.362V147.392C394.654 147.567 394.546 147.744 394.117 147.744H393.589V147H394.118ZM393.873 147.197V147.549H394.084C394.332 147.549 394.359 147.442 394.359 147.377V147.371C394.359 147.306 394.332 147.197 394.084 147.197H393.873ZM523.334 86.835C523.334 81.7494 522.28 75.1353 516.474 69.7715C510.648 64.3895 499.9 60.1357 480.197 60.1357H447.274V114.812H480.197C499.896 114.812 510.644 110.479 516.47 105.02C522.279 99.5756 523.334 92.8795 523.334 87.793V86.835ZM524.834 87.793C524.834 93.0796 523.734 100.267 517.495 106.114C511.272 111.945 500.076 116.312 480.197 116.312H445.774V58.6357H480.197C500.073 58.6357 511.268 62.9208 517.491 68.6699C523.734 74.4371 524.834 81.5474 524.834 86.835V87.793ZM571.913 89.2295C571.913 102.852 568.16 117.533 555.4 128.791C542.66 140.032 521.063 147.75 485.623 147.75H400.451V27.5166H485.464C519.78 27.5166 541.406 34.5925 554.463 45.3008C567.547 56.0318 571.913 70.3162 571.913 84.4414V89.2295Z" fill="white"/>
<path d="M238.276 27.5166V73.6201L295.466 27.6816L295.672 27.5166H354.45L284.331 82.25L356.445 147.75H295.165L238.276 95.5625V147.75H191.453V27.5166H238.276ZM184.875 147V147.333L185.238 147H185.608L185.161 147.406L185.594 147.744H185.241L184.875 147.45V147.744H184.591V147H184.875ZM192.953 146.25H236.776V92.1514L295.749 146.25H352.562L282.005 82.1641L350.091 29.0166H296.2L236.776 76.75V29.0166H192.953V146.25Z" fill="white"/>
<path d="M183.35 84.9199C183.35 73.8511 180.898 59.3626 169.049 47.6309C157.195 35.8945 135.798 26.7822 97.6025 26.7822H90.4209C52.0648 26.7823 30.6292 35.8949 18.7754 47.6309C6.92681 59.3617 4.5147 73.8493 4.51465 84.9199V89.708C4.51467 100.699 6.92677 115.349 18.7793 127.261C30.6342 139.174 52.0691 148.484 90.4209 148.484H97.6025C135.874 148.484 157.27 139.174 169.104 127.261C180.937 115.349 183.35 100.699 183.35 89.708V84.9199ZM0.705078 146.986C1.18608 146.986 1.24707 147.22 1.24707 147.359V147.389C1.24707 147.529 1.18508 147.758 0.705078 147.758H0.660156C0.178287 147.758 0.117188 147.529 0.117188 147.389V147.359C0.117188 147.22 0.178287 146.986 0.660156 146.986H0.705078ZM0.682617 147.187C0.462617 147.187 0.411133 147.292 0.411133 147.37V147.382C0.411133 147.461 0.458617 147.558 0.682617 147.558C0.902348 147.558 0.953125 147.461 0.953125 147.382V147.368C0.953125 147.288 0.902349 147.187 0.682617 147.187ZM136.431 86.0371C136.431 79.8989 134.455 73.1092 128.237 67.8379C122.001 62.5505 111.39 58.7002 93.9316 58.7002C76.1498 58.7003 65.544 62.5524 59.3906 67.835C53.2584 73.0996 51.4336 79.8849 51.4336 86.0371V87.9521C51.4336 94.0137 53.4117 101.092 59.6416 106.664C65.8804 112.244 76.4869 116.407 93.9316 116.407C111.384 116.407 121.992 112.4 128.229 106.938C134.451 101.487 136.431 94.4944 136.431 88.2715V86.0371ZM137.931 88.2715C137.931 94.8155 135.84 102.266 129.217 108.066C122.607 113.855 111.589 117.907 93.9316 117.907C76.2676 117.907 65.2496 113.691 58.6416 107.781C52.0249 101.863 49.9336 94.3383 49.9336 87.9521V86.0371C49.9336 79.5821 51.8594 72.3234 58.4141 66.6963C64.9479 61.0872 75.9666 57.2003 93.9316 57.2002C111.582 57.2002 122.597 61.089 129.207 66.6934C135.836 72.3138 137.931 79.568 137.931 86.0371V88.2715ZM184.85 89.708C184.85 100.9 182.394 116.012 170.169 128.318C157.946 140.622 136.092 149.984 97.6025 149.984H90.4209C51.8518 149.984 29.9588 140.622 17.7158 128.318C5.47074 116.012 3.01467 100.9 3.01465 89.708V84.9199C3.0147 73.6483 5.47075 58.6918 17.7197 46.5645C29.9638 34.4422 51.8562 25.2823 90.4209 25.2822H97.6025C136.009 25.2822 157.861 34.4426 170.104 46.5645C182.353 58.6909 184.85 73.6465 184.85 84.9199V89.708Z" fill="white"/>
</svg>
