<?xml version="1.0" encoding="UTF-8"?>
<!DOCTYPE svg PUBLIC "-//W3C//DTD SVG 1.1//EN" "http://www.w3.org/Graphics/SVG/1.1/DTD/svg11.dtd">
<!-- Creator: CorelDRAW -->
<svg xmlns="http://www.w3.org/2000/svg" xml:space="preserve" width="210mm" height="297mm" version="1.1" style="shape-rendering:geometricPrecision; text-rendering:geometricPrecision; image-rendering:optimizeQuality; fill-rule:evenodd; clip-rule:evenodd"
viewBox="0 0 21000 29700"
 xmlns:xlink="http://www.w3.org/1999/xlink"
 xmlns:xodm="http://www.corel.com/coreldraw/odm/2003">
 <defs>
  <style type="text/css">
   <![CDATA[
    .str0 {stroke:#909090;stroke-width:428.51;stroke-linecap:round;stroke-linejoin:round;stroke-miterlimit:22.9256}
    .fil0 {fill:none;fill-rule:nonzero}
    .fil1 {fill:#909090;fill-rule:nonzero}
   ]]>
  </style>
 </defs>
 <g id="Слой_x0020_1">
  <metadata id="CorelCorpID_0Corel-Layer"/>
  <path class="fil0 str0" d="M10604.61 10624.69c0.83,-0.55 0,4.69 6.34,-1.93 0,0 2813.4,1643.04 2813.4,1643.04 0.55,-1.1 -2.62,2.89 -1.24,-1.38 0,0 -2809.96,1667.29 -2809.96,1667.29 0,2.34 2.35,1.24 1.8,-0.28 0,0 -2810.65,-1663.84 -2808.31,-1664.39 0,0 2797.97,-1642.35 2797.97,-1642.35z"/>
  <path class="fil1" d="M10391.15 14737.86c0,-98.67 -52.64,-189.89 -138.22,-239.36 0,0 -2867.97,-1656.68 -2867.97,-1656.68 -184.38,-106.52 -414.65,26.46 -414.65,239.36 0,0 0,3638.3 0,3638.3 0,98.67 52.5,189.89 138.22,239.37 0,0 2867.83,1656.81 2867.83,1656.81 184.52,106.39 414.79,-26.6 414.79,-239.36 0,0 0,-3638.44 0,-3638.44zm-916.81 2483.64c-64.08,106.94 -167.43,167.57 -303.17,181.9 -305.05,31.82 -754.47,-263.03 -1012.99,-495.68 -160.54,-146.21 -299.59,-299.59 -410.24,-467.43 0,0 214.01,-417.13 214.01,-417.13 170.29,251.52 404.63,494.32 663.52,638.3 487.84,271.31 501.41,-198.94 328.11,-463.57 -122.67,-187.33 -352.22,-297.94 -567.34,-421.13 0,0 0,-456.4 0,-456.4 0,0 474.74,-413.83 474.74,-413.83 0,0 -988.33,-584.97 -988.33,-584.97 0,0 0,-556.46 0,-556.46 0,0 1601.69,966.42 1601.69,966.42 0,0 0,435.46 0,435.46 0,0 -502.84,456.41 -502.84,456.41 373.24,292.64 606.33,728.34 606.33,1184.28 0,164.27 -32.1,299.73 -96.18,406.66 0,0 -7.31,7.17 -7.31,7.17z"/>
  <path class="fil1" d="M12851.78 14723.81c-82,-24.95 -178.18,-7.17 -288.84,56.91 0,0 -353.33,207.12 -353.33,207.12 0,0 7.17,1812.12 7.17,1812.12 237.86,-109.52 491.16,-275.09 667.11,-542.4 82.13,-124.71 139.04,-224.48 174.73,-388.74 42.86,-199.82 53.61,-320.95 60.77,-517.18 8.72,-234.53 -61.64,-571.03 -267.61,-624.25 0,0 0,-3.58 0,-3.58z"/>
  <path class="fil1" d="M10964 14490.78c-85.71,49.47 -138.21,140.7 -138.21,239.36 0,0 0,3638.3 0,3638.3 0,212.91 230.27,345.89 414.65,239.37 0,0 2867.83,-1656.68 2867.83,-1656.68 85.72,-49.47 138.22,-140.7 138.22,-239.37 0,0 0,-3638.43 0,-3638.43 0,-212.77 -230.27,-345.75 -414.65,-239.37 0,0 -2867.84,1656.82 -2867.84,1656.82zm2476.34 1503.03c-136.56,481.83 -413.5,906.53 -830.96,1155.76 0,0 -781.21,467.29 -781.21,467.29 0,0 0,-2942.8 0,-2942.8 0,0 752.41,-438.77 752.41,-438.77 673.1,-391.84 941.45,292.01 956.08,895.17 7.17,292.7 -21.36,592.15 -96.32,859.76 0,0 0,3.59 0,3.59z"/>
  <path class="fil1" d="M12429.41 9584.41l1223.28 710.24c164.3,144.18 -21.09,405.68 -212.35,296.28l-1223.15 -710.38c-164.86,-144.67 22.66,-405.86 212.22,-296.14zm-1950.55 -977.72l257.15 0 531.44 310.89c164.67,144.51 -22.66,405.79 -212.36,296.14l-539.23 -311.3 91.64 -158.61 91.51 158.61 -526.69 300c-207.52,70.45 -340.12,-222.32 -150.34,-331.97l456.88 -263.76zm4335.66 2354.79l1020.16 588.98c56.87,32.7 91.5,92.96 91.5,158.47 0,74.47 10.36,204.49 -13.92,263.21 -75.97,183.73 -352.22,128.76 -352.22,-70.01l0 -193.2 183.14 0 -91.5 158.61 -1049.38 -609.91c-165.93,-145.63 24.37,-406.24 212.22,-296.15zm1111.66 2314.14l-3.44 1416.21c-42.76,214.89 -362.7,183.35 -362.7,-35.69l3.58 -1416.34c42.65,-214.79 362.56,-183.44 362.56,35.82zm0 2761.32l-3.44 245.57c-42.78,214.9 -362.7,183.38 -362.7,-35.69l3.58 -245.57c42.66,-214.84 362.56,-183.43 362.56,35.69zm-1081.48 2332.33l-1223.15 702.11c-207.5,70.45 -340.05,-222.36 -150.34,-331.97l1223.14 -702.11c206.96,-71.44 340.41,224.32 150.35,331.97zm-2384.7 1376.8l-1223.42 702.24c-208.72,70.77 -339.84,-223.47 -150.35,-331.83l1223.43 -702.25c207.13,-71.51 340.35,224.22 150.34,331.84zm-2562.32 659.8l-1218.05 -707.35c-165.43,-145.26 23.46,-405.94 212.22,-296.14l1218.18 707.35c164.76,144.68 -22.79,405.85 -212.35,296.14zm-2383.18 -1375.97l-1221.08 -709c-164.6,-144.44 21.62,-405.22 212.22,-296.28l1221.21 709.14c165.22,146.27 -23.37,405.52 -212.35,296.14zm-2225.81 -1674.32l3.44 -1408.08c42.75,-214.73 362.7,-183.42 362.7,35.83l-3.44 1407.94c-42.67,214.89 -362.7,183.57 -362.7,-35.69zm0 -2753.32l3.44 -1415.24c42.78,-214.92 362.7,-183.53 362.7,35.69l-3.44 1415.24c-42.68,214.86 -362.7,183.52 -362.7,-35.69zm0 -2750.98c0,-119.56 -21.83,-235.49 91.5,-300.82l1098.57 -630.32c206.25,-71.21 341.23,222.25 150.49,331.97l-1065.92 615.43 -91.64 -158.61 183.14 0c0,121.19 23.37,255.08 -112.99,311.44 -120.36,49.75 -253.15,-38.73 -253.15,-169.09zm2349 -1604.31l1226.18 -703.76c207.83,-70.12 340.03,222.24 150.35,331.97l-1226.04 703.76c-206.37,70.06 -341.34,-219.83 -150.49,-331.97z"/>
  <path class="fil0 str0" d="M10604.61 10624.69c0.83,-0.55 0,4.69 6.34,-1.93 0,0 2813.4,1643.04 2813.4,1643.04 0.55,-1.1 -2.62,2.89 -1.24,-1.38 0,0 -2809.96,1667.29 -2809.96,1667.29 0,2.34 2.35,1.24 1.8,-0.28 0,0 -2810.65,-1663.84 -2808.31,-1664.39 0,0 2797.97,-1642.35 2797.97,-1642.35z"/>
  <path class="fil1" d="M10391.15 14737.86c0,-98.67 -52.64,-189.89 -138.22,-239.36 0,0 -2867.97,-1656.68 -2867.97,-1656.68 -184.38,-106.52 -414.65,26.46 -414.65,239.36 0,0 0,3638.3 0,3638.3 0,98.67 52.5,189.89 138.22,239.37 0,0 2867.83,1656.81 2867.83,1656.81 184.52,106.39 414.79,-26.6 414.79,-239.36 0,0 0,-3638.44 0,-3638.44zm-916.81 2483.64c-64.08,106.94 -167.43,167.57 -303.17,181.9 -305.05,31.82 -754.47,-263.03 -1012.99,-495.68 -160.54,-146.21 -299.59,-299.59 -410.24,-467.43 0,0 214.01,-417.13 214.01,-417.13 170.29,251.52 404.63,494.32 663.52,638.3 487.84,271.31 501.41,-198.94 328.11,-463.57 -122.67,-187.33 -352.22,-297.94 -567.34,-421.13 0,0 0,-456.4 0,-456.4 0,0 474.74,-413.83 474.74,-413.83 0,0 -988.33,-584.97 -988.33,-584.97 0,0 0,-556.46 0,-556.46 0,0 1601.69,966.42 1601.69,966.42 0,0 0,435.46 0,435.46 0,0 -502.84,456.41 -502.84,456.41 373.24,292.64 606.33,728.34 606.33,1184.28 0,164.27 -32.1,299.73 -96.18,406.66 0,0 -7.31,7.17 -7.31,7.17z"/>
  <path class="fil1" d="M12851.78 14723.81c-82,-24.95 -178.18,-7.17 -288.84,56.91 0,0 -353.33,207.12 -353.33,207.12 0,0 7.17,1812.12 7.17,1812.12 237.86,-109.52 491.16,-275.09 667.11,-542.4 82.13,-124.71 139.04,-224.48 174.73,-388.74 42.86,-199.82 53.61,-320.95 60.77,-517.18 8.72,-234.53 -61.64,-571.03 -267.61,-624.25 0,0 0,-3.58 0,-3.58z"/>
  <path class="fil1" d="M10964 14490.78c-85.71,49.47 -138.21,140.7 -138.21,239.36 0,0 0,3638.3 0,3638.3 0,212.91 230.27,345.89 414.65,239.37 0,0 2867.83,-1656.68 2867.83,-1656.68 85.72,-49.47 138.22,-140.7 138.22,-239.37 0,0 0,-3638.43 0,-3638.43 0,-212.77 -230.27,-345.75 -414.65,-239.37 0,0 -2867.84,1656.82 -2867.84,1656.82zm2476.34 1503.03c-136.56,481.83 -413.5,906.53 -830.96,1155.76 0,0 -781.21,467.29 -781.21,467.29 0,0 0,-2942.8 0,-2942.8 0,0 752.41,-438.77 752.41,-438.77 673.1,-391.84 941.45,292.01 956.08,895.17 7.17,292.7 -21.36,592.15 -96.32,859.76 0,0 0,3.59 0,3.59z"/>
  <path class="fil1" d="M18032.1 16544.61c-64.63,36.65 -118.1,84.61 -159.85,140.01 -238.65,-189.37 -594.91,-142.21 -768.54,111.89 -217.86,-139.54 -509.81,-105.88 -684.74,92.19 0,0 -291.18,-504.91 -291.18,-504.91 -145.8,-253.01 -470.88,-342.17 -724.16,-198.58 -253.7,143.32 -341.34,465.78 -195.68,718.65 0,0 1047.44,1817.63 1047.44,1817.63l-559.07 -191.54c-565.07,-138.86 -1006.24,592.95 -323.15,993.84 356.64,209.05 718.24,391.5 1037.53,552.87 233.3,117.82 453.79,228.75 624.53,327.14 148.14,85.58 585.11,387.23 589.38,390.26 56.92,39.42 131.33,42.72 191.28,8.69 0,0 1967.14,-1112.36 1967.14,-1112.36 67.67,-38.44 102.67,-115.2 86.68,-190.58 -28.52,-133.81 -284.15,-1317.68 -507.39,-1704.77 0,0 -606.06,-1051.44 -606.06,-1051.44 -145.8,-253.01 -470.46,-342.17 -724.16,-198.99zm115.62 543.08c-47.96,-82.96 -19.98,-188.51 61.87,-234.54 81.99,-46.44 187.83,-16.67 235.78,66.42 0,0 606.06,1051.58 606.06,1051.58 148.28,257.14 346.86,1061.23 439.74,1475.47 0,0 -1754.52,992.6 -1754.52,992.6 -512.31,-350.37 -600.17,-394.58 -1163.34,-678.96 -314.33,-158.75 -670.69,-338.58 -1017.55,-541.84 -90.39,-53.2 -193.06,-135.88 -167.57,-228.21 25.02,-91.22 127.14,-143.01 208.78,-119.34 0,0 991.77,340.52 991.77,340.52 154.22,52.92 296.35,-112.92 214.29,-255.63 0,0 -1283.78,-2227.87 -1283.78,-2227.87 -114.78,-198.58 183.42,-365.94 297.65,-168.12 0,0 829.03,1438.81 829.03,1438.81 48.78,84.88 158.34,114.37 244.46,65.73 85.72,-48.23 115.62,-156.82 66.7,-241.99 0,0 -288.15,-499.67 -288.15,-499.67 -47.68,-82.96 -19.98,-188.24 62.15,-234.68 82.13,-46.44 187.55,-16.54 235.51,66.42 0,0 403.77,700.87 403.77,700.87 49.19,85.16 158.61,114.65 244.46,66.15 85.85,-48.65 115.62,-156.83 66.7,-242.4 0,0 -287.74,-499.4 -287.74,-499.4 -114.84,-198.71 183.7,-366.05 297.24,-168.12 0,0 404.18,700.45 404.18,700.45 116.49,202.61 428.02,27.2 310.89,-175.83 0,0 -258.38,-448.42 -258.38,-448.42z"/>
 </g>
</svg>
