<?xml version="1.0" encoding="UTF-8"?>
<svg id="Layer_2" data-name="Layer 2" xmlns="http://www.w3.org/2000/svg" viewBox="0 0 519.31 364.79">
  <defs>
    <style>
      .cls-1 {
        fill: #909090;
      }

      .cls-2 {
        stroke-linecap: round;
        stroke-linejoin: round;
        stroke-width: 13.08px;
      }

      .cls-2, .cls-3, .cls-4 {
        fill: none;
        stroke: #909090;
      }

      .cls-3 {
        stroke-width: 8.83px;
      }

      .cls-3, .cls-4 {
        stroke-miterlimit: 10;
      }

      .cls-4 {
        stroke-width: 11.77px;
      }
    </style>
  </defs>
  <g id="Layer_1-2" data-name="Layer 1">
    <g id="_Слой_1" data-name="Слой_1">
      <path class="cls-1" d="M345.48,255.17c-2.25-1.75-4.76-2.94-7.36-3.61,2.31-7.76-.18-16.46-6.95-21.71-2.52-1.95-5.36-3.22-8.3-3.82,1.87-9.85-3.69-19.56-13.32-22.88l13.96-17.65c6.99-8.85,5.46-21.64-3.41-28.52-8.86-6.87-21.77-5.27-28.76,3.57l-50.21,63.55-1.25-22.57c-2.31-20.89-35.89-27.9-40.52,3.08-2.34,15.66-3.64,31.11-4.79,44.74-.84,9.97-1.63,19.39-2.69,26.87-.91,6.48-5.41,26.33-5.46,26.53-.58,2.58.38,5.26,2.48,6.89l68.77,53.33c2.36,1.83,5.65,1.95,8.13.28,4.4-2.96,43.34-29.27,54.03-42.8l29.05-36.77c6.99-8.85,5.47-21.64-3.4-28.51h0ZM327.6,267.18c2.29-2.9,6.5-3.46,9.36-1.23,2.87,2.22,3.34,6.39,1.04,9.29l-29.05,36.77c-7.11,8.99-33.18,27.75-46.76,37.08l-61.36-47.57c5.18-23.33,5.45-26.83,7.5-51.03,1.13-13.43,2.41-28.66,4.69-43.89.59-3.97,2.07-8.8,5.77-9.25,3.63-.44,7.02,2.39,7.35,5.64l2.2,40.04c.35,6.32,8.44,8.79,12.34,3.86l61.55-77.9c2.29-2.9,6.5-3.45,9.36-1.23,2.87,2.22,3.34,6.39,1.05,9.3l-39.75,50.3c-2.35,2.97-1.82,7.28,1.19,9.61,3,2.33,7.34,1.8,9.69-1.17l13.81-17.48c2.29-2.9,6.49-3.45,9.36-1.23,2.87,2.22,3.34,6.4,1.04,9.3l-19.35,24.49c-2.35,2.98-1.82,7.28,1.18,9.61,3.01,2.33,7.35,1.8,9.7-1.17l13.8-17.47c2.29-2.9,6.5-3.46,9.36-1.24,2.87,2.23,3.34,6.4,1.05,9.3l-19.36,24.5c-2.36,2.98-1.82,7.28,1.18,9.61,3.01,2.33,7.35,1.8,9.7-1.17l12.39-15.68h0Z"/>
      <path class="cls-3" d="M160.4,52.82v258.5c0,1.73-1.41,3.14-3.14,3.14H7.55c-1.73,0-3.14-1.41-3.14-3.14V52.82c0-1.73,1.41-3.14,3.14-3.14h149.71c1.73,0,3.14,1.41,3.14,3.14Z"/>
      <path class="cls-4" d="M513.42,10.07v344.66c0,2.31-1.87,4.18-4.18,4.18H164.58c-2.31,0-4.18-1.88-4.18-4.18V10.07c0-2.31,1.87-4.18,4.18-4.18h344.66c2.31,0,4.18,1.88,4.18,4.18h0Z"/>
      <path class="cls-1" d="M82.6,183.9c-6.46,0-6.46-9.81,0-9.81h77.79v9.81h-77.79ZM160.4,162.39l-19.15-19.16c-4.56-4.56,2.37-11.5,6.93-6.93l12.22,12.22v13.87h0ZM160.4,209.47l-12.22,12.22c-4.56,4.56-11.5-2.37-6.93-6.93l19.15-19.15v13.87h0Z"/>
      <path class="cls-2" d="M264.65,178.3h20.72M319.82,178.3h79.93M399.76,178.3l-52.3-52.3M399.76,178.3l-52.3,52.3"/>
    </g>
  </g>
</svg>