<?xml version="1.0" encoding="UTF-8"?>
<!DOCTYPE svg PUBLIC "-//W3C//DTD SVG 1.1//EN" "http://www.w3.org/Graphics/SVG/1.1/DTD/svg11.dtd">
<!-- Creator: CorelDRAW -->
<svg xmlns="http://www.w3.org/2000/svg" xml:space="preserve" width="210mm" height="297mm" version="1.1" style="shape-rendering:geometricPrecision; text-rendering:geometricPrecision; image-rendering:optimizeQuality; fill-rule:evenodd; clip-rule:evenodd"
viewBox="0 0 21000 29700"
 xmlns:xlink="http://www.w3.org/1999/xlink"
 xmlns:xodm="http://www.corel.com/coreldraw/odm/2003">
 <defs>
  <style type="text/css">
   <![CDATA[
    .str2 {stroke:#909090;stroke-width:461.29;stroke-miterlimit:22.9256}
    .str0 {stroke:#909090;stroke-width:450.03;stroke-miterlimit:22.9256}
    .str1 {stroke:#909090;stroke-width:461.29;stroke-linejoin:round;stroke-miterlimit:22.9256}
    .fil0 {fill:none}
   ]]>
  </style>
 </defs>
 <g id="Слой_x0020_1">
  <metadata id="CorelCorpID_0Corel-Layer"/>
  <path class="fil0 str0" d="M1800.74 8614c0,0 17399.94,0 17399.94,0 165.64,0 300,132.98 300,296.83 0,0 0,11876.48 0,11876.48 0,163.85 -134.36,296.97 -300,296.97 0,0 -17399.94,0 -17399.94,0 -165.64,0 -300,-133.12 -300,-296.97 0,0 0,-11876.48 0,-11876.48 0,-163.85 134.36,-296.83 300,-296.83"/>
  <path class="fil0 str1" d="M12056.65 21076.01c2452.63,0 7361.34,0 7361.34,0 42.72,0 76.9,-34.45 76.9,-76.89 0,0 0,-3258.93 0,-3258.93 0,-20.53 -8.27,-40.51 -23.02,-54.98 0,0 -2406.19,-2349.42 -2406.19,-2349.42 -28.94,-28.25 -74.83,-29.07 -104.87,-2.34 0,0 -1674.04,1486.49 -3298.61,2928.61"/>
  <path class="fil0 str1" d="M1529.81 15412.14c0,0 4130.12,-3978.26 4130.12,-3978.26 28.94,-27.56 74.14,-28.25 103.91,-2.07 0,0 10858.11,9509.57 10858.11,9509.57 53.19,46.71 20.26,135.04 -50.85,135.04 0,0 -14988.37,0 -14988.37,0 -42.44,0 -76.89,-34.45 -76.89,-76.89 0,0 0,-5532.41 0,-5532.41 0,-20.81 8.95,-40.52 23.97,-54.98"/>
  <path class="fil0 str2" d="M12714.8 13008.42c464.95,0 845.56,-374 845.56,-839.91 0,-465.78 -380.61,-839.78 -845.56,-839.78 -464.95,0 -845.7,374 -845.7,839.78 0,465.91 380.75,839.91 845.7,839.91"/>
 </g>
</svg>
